<?xml version="1.0" encoding="UTF-8" standalone="no"?>
<!-- Created with Inkscape (http://www.inkscape.org/) -->

<svg
   version="1.1"
   id="svg2"
   width="492.3316"
   height="492.3316"
   viewBox="0 0 492.3316 492.3316"
   sodipodi:docname="icono_MetaCiencia.svg"
   inkscape:version="1.2.2 (b0a8486541, 2022-12-01)"
   xmlns:inkscape="http://www.inkscape.org/namespaces/inkscape"
   xmlns:sodipodi="http://sodipodi.sourceforge.net/DTD/sodipodi-0.dtd"
   xmlns="http://www.w3.org/2000/svg"
   xmlns:svg="http://www.w3.org/2000/svg">
  <defs
     id="defs6">
    <clipPath
       clipPathUnits="userSpaceOnUse"
       id="clipPath22">
      <path
         d="M 0,0 H 613 V 793 H 0 Z"
         id="path20" />
    </clipPath>
    <linearGradient
       x1="0"
       y1="0"
       x2="1"
       y2="0"
       gradientUnits="userSpaceOnUse"
       gradientTransform="matrix(0,-59.381854,59.381854,0,314.57338,278.84895)"
       spreadMethod="pad"
       id="linearGradient84">
      <stop
         style="stop-opacity:1;stop-color:#c300be"
         offset="0"
         id="stop80" />
      <stop
         style="stop-opacity:1;stop-color:#00340d"
         offset="1"
         id="stop82" />
    </linearGradient>
    <linearGradient
       x1="0"
       y1="0"
       x2="1"
       y2="0"
       gradientUnits="userSpaceOnUse"
       gradientTransform="matrix(0,-61.236292,61.236292,0,314.57509,279.77308)"
       spreadMethod="pad"
       id="linearGradient102">
      <stop
         style="stop-opacity:1;stop-color:#c300be"
         offset="0"
         id="stop98" />
      <stop
         style="stop-opacity:1;stop-color:#00340d"
         offset="1"
         id="stop100" />
    </linearGradient>
    <linearGradient
       x1="0"
       y1="0"
       x2="1"
       y2="0"
       gradientUnits="userSpaceOnUse"
       gradientTransform="matrix(0,-61.463842,61.463842,0,314.57467,279.88819)"
       spreadMethod="pad"
       id="linearGradient120">
      <stop
         style="stop-opacity:1;stop-color:#c300be"
         offset="0"
         id="stop116" />
      <stop
         style="stop-opacity:1;stop-color:#00340d"
         offset="1"
         id="stop118" />
    </linearGradient>
    <linearGradient
       x1="0"
       y1="0"
       x2="1"
       y2="0"
       gradientUnits="userSpaceOnUse"
       gradientTransform="matrix(0,-60.107675,60.107675,0,314.57509,279.21028)"
       spreadMethod="pad"
       id="linearGradient138">
      <stop
         style="stop-opacity:1;stop-color:#c300be"
         offset="0"
         id="stop134" />
      <stop
         style="stop-opacity:1;stop-color:#00340d"
         offset="1"
         id="stop136" />
    </linearGradient>
    <linearGradient
       x1="0"
       y1="0"
       x2="1"
       y2="0"
       gradientUnits="userSpaceOnUse"
       gradientTransform="matrix(0,-72.846014,72.846014,0,314.57567,285.57936)"
       spreadMethod="pad"
       id="linearGradient156">
      <stop
         style="stop-opacity:1;stop-color:#c300be"
         offset="0"
         id="stop152" />
      <stop
         style="stop-opacity:1;stop-color:#00340d"
         offset="1"
         id="stop154" />
    </linearGradient>
    <linearGradient
       x1="0"
       y1="0"
       x2="1"
       y2="0"
       gradientUnits="userSpaceOnUse"
       gradientTransform="matrix(0,-85.593847,85.593847,0,314.57515,291.9535)"
       spreadMethod="pad"
       id="linearGradient174">
      <stop
         style="stop-opacity:1;stop-color:#c300be"
         offset="0"
         id="stop170" />
      <stop
         style="stop-opacity:1;stop-color:#00340d"
         offset="1"
         id="stop172" />
    </linearGradient>
    <linearGradient
       x1="0"
       y1="0"
       x2="1"
       y2="0"
       gradientUnits="userSpaceOnUse"
       gradientTransform="matrix(0,-97.897161,97.897161,0,314.57808,298.10209)"
       spreadMethod="pad"
       id="linearGradient192">
      <stop
         style="stop-opacity:1;stop-color:#c300be"
         offset="0"
         id="stop188" />
      <stop
         style="stop-opacity:1;stop-color:#00340d"
         offset="1"
         id="stop190" />
    </linearGradient>
    <linearGradient
       x1="0"
       y1="0"
       x2="1"
       y2="0"
       gradientUnits="userSpaceOnUse"
       gradientTransform="matrix(0,-109.26506,109.26506,0,314.57793,303.78605)"
       spreadMethod="pad"
       id="linearGradient210">
      <stop
         style="stop-opacity:1;stop-color:#c300be"
         offset="0"
         id="stop206" />
      <stop
         style="stop-opacity:1;stop-color:#00340d"
         offset="1"
         id="stop208" />
    </linearGradient>
    <linearGradient
       x1="0"
       y1="0"
       x2="1"
       y2="0"
       gradientUnits="userSpaceOnUse"
       gradientTransform="matrix(0,-119.14745,119.14745,0,314.57787,308.73271)"
       spreadMethod="pad"
       id="linearGradient228">
      <stop
         style="stop-opacity:1;stop-color:#c300be"
         offset="0"
         id="stop224" />
      <stop
         style="stop-opacity:1;stop-color:#00340d"
         offset="1"
         id="stop226" />
    </linearGradient>
    <linearGradient
       x1="0"
       y1="0"
       x2="1"
       y2="0"
       gradientUnits="userSpaceOnUse"
       gradientTransform="matrix(0,-126.96314,126.96314,0,314.57888,312.63798)"
       spreadMethod="pad"
       id="linearGradient246">
      <stop
         style="stop-opacity:1;stop-color:#c300be"
         offset="0"
         id="stop242" />
      <stop
         style="stop-opacity:1;stop-color:#00340d"
         offset="1"
         id="stop244" />
    </linearGradient>
    <linearGradient
       x1="0"
       y1="0"
       x2="1"
       y2="0"
       gradientUnits="userSpaceOnUse"
       gradientTransform="matrix(0,-132.07483,132.07483,0,314.57161,315.19398)"
       spreadMethod="pad"
       id="linearGradient264">
      <stop
         style="stop-opacity:1;stop-color:#c300be"
         offset="0"
         id="stop260" />
      <stop
         style="stop-opacity:1;stop-color:#00340d"
         offset="1"
         id="stop262" />
    </linearGradient>
    <linearGradient
       x1="0"
       y1="0"
       x2="1"
       y2="0"
       gradientUnits="userSpaceOnUse"
       gradientTransform="matrix(0,-133.8551,133.8551,0,314.57509,316.08409)"
       spreadMethod="pad"
       id="linearGradient282">
      <stop
         style="stop-opacity:1;stop-color:#c300be"
         offset="0"
         id="stop278" />
      <stop
         style="stop-opacity:1;stop-color:#00340d"
         offset="1"
         id="stop280" />
    </linearGradient>
    <linearGradient
       x1="0"
       y1="0"
       x2="1"
       y2="0"
       gradientUnits="userSpaceOnUse"
       gradientTransform="matrix(0,-131.73036,131.73036,0,314.57522,315.02183)"
       spreadMethod="pad"
       id="linearGradient300">
      <stop
         style="stop-opacity:1;stop-color:#c300be"
         offset="0"
         id="stop296" />
      <stop
         style="stop-opacity:1;stop-color:#00340d"
         offset="1"
         id="stop298" />
    </linearGradient>
    <linearGradient
       x1="0"
       y1="0"
       x2="1"
       y2="0"
       gradientUnits="userSpaceOnUse"
       gradientTransform="matrix(0,-148.68138,148.68138,0,314.57564,323.49659)"
       spreadMethod="pad"
       id="linearGradient318">
      <stop
         style="stop-opacity:1;stop-color:#c300be"
         offset="0"
         id="stop314" />
      <stop
         style="stop-opacity:1;stop-color:#00340d"
         offset="1"
         id="stop316" />
    </linearGradient>
    <linearGradient
       x1="0"
       y1="0"
       x2="1"
       y2="0"
       gradientUnits="userSpaceOnUse"
       gradientTransform="matrix(0,-176.48141,176.48141,0,314.57833,337.40025)"
       spreadMethod="pad"
       id="linearGradient336">
      <stop
         style="stop-opacity:1;stop-color:#c300be"
         offset="0"
         id="stop332" />
      <stop
         style="stop-opacity:1;stop-color:#00340d"
         offset="1"
         id="stop334" />
    </linearGradient>
    <linearGradient
       x1="0"
       y1="0"
       x2="1"
       y2="0"
       gradientUnits="userSpaceOnUse"
       gradientTransform="matrix(0,-203.67835,203.67835,0,314.56923,351.00132)"
       spreadMethod="pad"
       id="linearGradient354">
      <stop
         style="stop-opacity:1;stop-color:#c300be"
         offset="0"
         id="stop350" />
      <stop
         style="stop-opacity:1;stop-color:#00340d"
         offset="1"
         id="stop352" />
    </linearGradient>
    <linearGradient
       x1="0"
       y1="0"
       x2="1"
       y2="0"
       gradientUnits="userSpaceOnUse"
       gradientTransform="matrix(0,-229.22274,229.22274,0,314.57512,363.76155)"
       spreadMethod="pad"
       id="linearGradient372">
      <stop
         style="stop-opacity:1;stop-color:#c300be"
         offset="0"
         id="stop368" />
      <stop
         style="stop-opacity:1;stop-color:#00340d"
         offset="1"
         id="stop370" />
    </linearGradient>
    <linearGradient
       x1="0"
       y1="0"
       x2="1"
       y2="0"
       gradientUnits="userSpaceOnUse"
       gradientTransform="matrix(0,-251.97233,251.97233,0,314.57509,375.14262)"
       spreadMethod="pad"
       id="linearGradient390">
      <stop
         style="stop-opacity:1;stop-color:#c300be"
         offset="0"
         id="stop386" />
      <stop
         style="stop-opacity:1;stop-color:#00340d"
         offset="1"
         id="stop388" />
    </linearGradient>
    <clipPath
       clipPathUnits="userSpaceOnUse"
       id="clipPath402">
      <path
         d="M 0,0 H 613 V 793 H 0 Z"
         id="path400" />
    </clipPath>
    <clipPath
       clipPathUnits="userSpaceOnUse"
       id="clipPath430">
      <path
         d="M 0,0 H 613 V 793 H 0 Z"
         id="path428" />
    </clipPath>
    <clipPath
       clipPathUnits="userSpaceOnUse"
       id="clipPath454">
      <path
         d="M 0,0 H 613 V 793 H 0 Z"
         id="path452" />
    </clipPath>
    <clipPath
       clipPathUnits="userSpaceOnUse"
       id="clipPath526">
      <path
         d="M 0,0 H 613 V 793 H 0 Z"
         id="path524" />
    </clipPath>
    <clipPath
       id="clipPath51286">
      <g
         transform="translate(-4.2167e-6,1.015e-5)"
         id="g173264">
        <g
           transform="translate(568.3,262.66)"
           id="g173262">
          <path
             d="m -460.62,-365.53 h 215.9 v 279.4 h -215.9 z"
             stroke-width="0.35278"
             id="path173260" />
        </g>
      </g>
    </clipPath>
    <clipPath
       id="clipPath1704">
      <path
         d="M 0,792 H 612 V 0 H 0 Z"
         id="path171370" />
    </clipPath>
    <clipPath
       id="clipPath99906">
      <g
         transform="matrix(2.8346,0,0,-2.8346,529.07,-502.88)"
         id="g172726">
        <path
           d="m -296.46,-384.95 h 215.9 v 279.4 h -215.9 z"
           stroke-width="0.35278"
           id="path172724" />
      </g>
    </clipPath>
    <clipPath
       id="clipPath99900">
      <g
         transform="matrix(2.8346,0,0,-2.8346,645.09,-486.47)"
         id="g172721">
        <path
           d="m -296.46,-384.95 h 215.9 v 279.4 h -215.9 z"
           stroke-width="0.35278"
           id="path172719" />
      </g>
    </clipPath>
    <clipPath
       id="clipPath99894">
      <g
         transform="matrix(2.8346,0,0,-2.8346,631.62,-513.83)"
         id="g172716">
        <path
           d="m -296.46,-384.95 h 215.9 v 279.4 h -215.9 z"
           stroke-width="0.35278"
           id="path172714" />
      </g>
    </clipPath>
    <clipPath
       id="clipPath99888">
      <g
         transform="matrix(2.8346,0,0,-2.8346,629.16,-511.14)"
         id="g172711">
        <path
           d="m -296.46,-384.95 h 215.9 v 279.4 h -215.9 z"
           stroke-width="0.35278"
           id="path172709" />
      </g>
    </clipPath>
    <clipPath
       id="clipPath99882">
      <g
         transform="matrix(2.8346,0,0,-2.8346,632.25,-503.67)"
         id="g172706">
        <path
           d="m -296.46,-384.95 h 215.9 v 279.4 h -215.9 z"
           stroke-width="0.35278"
           id="path172704" />
      </g>
    </clipPath>
    <clipPath
       id="clipPath99876">
      <g
         transform="matrix(2.8346,0,0,-2.8346,629.87,-500.71)"
         id="g172701">
        <path
           d="m -296.46,-384.95 h 215.9 v 279.4 h -215.9 z"
           stroke-width="0.35278"
           id="path172699" />
      </g>
    </clipPath>
    <clipPath
       id="clipPath99870">
      <g
         transform="matrix(2.8346,0,0,-2.8346,630.22,-506.74)"
         id="g172696">
        <path
           d="m -296.46,-384.95 h 215.9 v 279.4 h -215.9 z"
           stroke-width="0.35278"
           id="path172694" />
      </g>
    </clipPath>
    <clipPath
       id="clipPath99864">
      <g
         transform="matrix(2.8346,0,0,-2.8346,633.49,-492.74)"
         id="g172691">
        <path
           d="m -296.46,-384.95 h 215.9 v 279.4 h -215.9 z"
           stroke-width="0.35278"
           id="path172689" />
      </g>
    </clipPath>
    <clipPath
       id="clipPath99858">
      <g
         transform="matrix(2.8346,0,0,-2.8346,632.21,-495.95)"
         id="g172686">
        <path
           d="m -296.46,-384.95 h 215.9 v 279.4 h -215.9 z"
           stroke-width="0.35278"
           id="path172684" />
      </g>
    </clipPath>
    <clipPath
       id="clipPath99852">
      <g
         transform="matrix(2.8346,0,0,-2.8346,628.15,-518.6)"
         id="g172681">
        <path
           d="m -296.46,-384.95 h 215.9 v 279.4 h -215.9 z"
           stroke-width="0.35278"
           id="path172679" />
      </g>
    </clipPath>
    <clipPath
       id="clipPath99846">
      <g
         transform="matrix(2.8346,0,0,-2.8346,627.13,-521.83)"
         id="g172676">
        <path
           d="m -296.46,-384.95 h 215.9 v 279.4 h -215.9 z"
           stroke-width="0.35278"
           id="path172674" />
      </g>
    </clipPath>
    <clipPath
       id="clipPath99840">
      <g
         transform="matrix(2.8346,0,0,-2.8346,627.5,-525.37)"
         id="g172671">
        <path
           d="m -296.46,-384.95 h 215.9 v 279.4 h -215.9 z"
           stroke-width="0.35278"
           id="path172669" />
      </g>
    </clipPath>
    <clipPath
       id="clipPath99834">
      <g
         transform="matrix(2.8346,0,0,-2.8346,629.68,-528.89)"
         id="g172666">
        <path
           d="m -296.46,-384.95 h 215.9 v 279.4 h -215.9 z"
           stroke-width="0.35278"
           id="path172664" />
      </g>
    </clipPath>
    <clipPath
       id="clipPath99828">
      <g
         transform="matrix(2.8346,0,0,-2.8346,630.42,-516.44)"
         id="g172661">
        <path
           d="m -296.46,-384.95 h 215.9 v 279.4 h -215.9 z"
           stroke-width="0.35278"
           id="path172659" />
      </g>
    </clipPath>
    <clipPath
       id="clipPath99822">
      <g
         transform="matrix(2.8346,0,0,-2.8346,632.36,-528.05)"
         id="g172656">
        <path
           d="m -296.46,-384.95 h 215.9 v 279.4 h -215.9 z"
           stroke-width="0.35278"
           id="path172654" />
      </g>
    </clipPath>
    <clipPath
       id="clipPath99816">
      <g
         transform="matrix(2.8346,0,0,-2.8346,655.08,-513.83)"
         id="g172651">
        <path
           d="m -296.46,-384.95 h 215.9 v 279.4 h -215.9 z"
           stroke-width="0.35278"
           id="path172649" />
      </g>
    </clipPath>
    <clipPath
       id="clipPath99810">
      <g
         transform="matrix(2.8346,0,0,-2.8346,657.54,-511.14)"
         id="g172646">
        <path
           d="m -296.46,-384.95 h 215.9 v 279.4 h -215.9 z"
           stroke-width="0.35278"
           id="path172644" />
      </g>
    </clipPath>
    <clipPath
       id="clipPath99804">
      <g
         transform="matrix(2.8346,0,0,-2.8346,654.45,-503.67)"
         id="g172641">
        <path
           d="m -296.46,-384.95 h 215.9 v 279.4 h -215.9 z"
           stroke-width="0.35278"
           id="path172639" />
      </g>
    </clipPath>
    <clipPath
       id="clipPath99798">
      <g
         transform="matrix(2.8346,0,0,-2.8346,656.84,-500.71)"
         id="g172636">
        <path
           d="m -296.46,-384.95 h 215.9 v 279.4 h -215.9 z"
           stroke-width="0.35278"
           id="path172634" />
      </g>
    </clipPath>
    <clipPath
       id="clipPath99792">
      <g
         transform="matrix(2.8346,0,0,-2.8346,656.48,-506.74)"
         id="g172631">
        <path
           d="m -296.46,-384.95 h 215.9 v 279.4 h -215.9 z"
           stroke-width="0.35278"
           id="path172629" />
      </g>
    </clipPath>
    <clipPath
       id="clipPath99786">
      <g
         transform="matrix(2.8346,0,0,-2.8346,653.21,-492.74)"
         id="g172626">
        <path
           d="m -296.46,-384.95 h 215.9 v 279.4 h -215.9 z"
           stroke-width="0.35278"
           id="path172624" />
      </g>
    </clipPath>
    <clipPath
       id="clipPath99780">
      <g
         transform="matrix(2.8346,0,0,-2.8346,654.49,-495.95)"
         id="g172621">
        <path
           d="m -296.46,-384.95 h 215.9 v 279.4 h -215.9 z"
           stroke-width="0.35278"
           id="path172619" />
      </g>
    </clipPath>
    <clipPath
       id="clipPath99774">
      <g
         transform="matrix(2.8346,0,0,-2.8346,658.56,-518.6)"
         id="g172616">
        <path
           d="m -296.46,-384.95 h 215.9 v 279.4 h -215.9 z"
           stroke-width="0.35278"
           id="path172614" />
      </g>
    </clipPath>
    <clipPath
       id="clipPath99768">
      <g
         transform="matrix(2.8346,0,0,-2.8346,659.57,-521.83)"
         id="g172611">
        <path
           d="m -296.46,-384.95 h 215.9 v 279.4 h -215.9 z"
           stroke-width="0.35278"
           id="path172609" />
      </g>
    </clipPath>
    <clipPath
       id="clipPath99762">
      <g
         transform="matrix(2.8346,0,0,-2.8346,659.2,-525.37)"
         id="g172606">
        <path
           d="m -296.46,-384.95 h 215.9 v 279.4 h -215.9 z"
           stroke-width="0.35278"
           id="path172604" />
      </g>
    </clipPath>
    <clipPath
       id="clipPath99756">
      <g
         transform="matrix(2.8346,0,0,-2.8346,657.02,-528.89)"
         id="g172601">
        <path
           d="m -296.46,-384.95 h 215.9 v 279.4 h -215.9 z"
           stroke-width="0.35278"
           id="path172599" />
      </g>
    </clipPath>
    <clipPath
       id="clipPath99750">
      <g
         transform="matrix(2.8346,0,0,-2.8346,656.28,-516.44)"
         id="g172596">
        <path
           d="m -296.46,-384.95 h 215.9 v 279.4 h -215.9 z"
           stroke-width="0.35278"
           id="path172594" />
      </g>
    </clipPath>
    <clipPath
       id="clipPath99744">
      <g
         transform="matrix(2.8346,0,0,-2.8346,654.38,-528.96)"
         id="g172591">
        <path
           d="m -296.46,-384.95 h 215.9 v 279.4 h -215.9 z"
           stroke-width="0.35278"
           id="path172589" />
      </g>
    </clipPath>
    <clipPath
       id="clipPath99738">
      <g
         transform="matrix(2.8346,0,0,-2.8346,601.08,-749.68)"
         id="g172586">
        <path
           d="m -296.46,-384.95 h 215.9 v 279.4 h -215.9 z"
           stroke-width="0.35278"
           id="path172584" />
      </g>
    </clipPath>
    <clipPath
       id="clipPath99732">
      <g
         transform="matrix(2.8346,0,0,-2.8346,622.4,-749.68)"
         id="g172581">
        <path
           d="m -296.46,-384.95 h 215.9 v 279.4 h -215.9 z"
           stroke-width="0.35278"
           id="path172579" />
      </g>
    </clipPath>
    <clipPath
       id="clipPath99726">
      <g
         transform="matrix(2.8346,0,0,-2.8346,643.72,-749.68)"
         id="g172576">
        <path
           d="m -296.46,-384.95 h 215.9 v 279.4 h -215.9 z"
           stroke-width="0.35278"
           id="path172574" />
      </g>
    </clipPath>
    <clipPath
       id="clipPath99720">
      <g
         transform="matrix(2.8346,0,0,-2.8346,555.91,-740.22)"
         id="g172571">
        <path
           d="m -296.46,-384.95 h 215.9 v 279.4 h -215.9 z"
           stroke-width="0.35278"
           id="path172569" />
      </g>
    </clipPath>
    <linearGradient
       id="linearGradient60444"
       x2="1"
       gradientTransform="matrix(0,59.382,59.382,0,314.57,513.15)"
       gradientUnits="userSpaceOnUse">
      <stop
         stop-color="#a08"
         offset="0"
         id="stop172479" />
      <stop
         offset="1"
         id="stop172481" />
    </linearGradient>
    <linearGradient
       id="linearGradient60446"
       x2="1"
       gradientTransform="matrix(0,61.236,61.236,0,314.58,512.23)"
       gradientUnits="userSpaceOnUse">
      <stop
         stop-color="#a08"
         offset="0"
         id="stop172484" />
      <stop
         offset="1"
         id="stop172486" />
    </linearGradient>
    <linearGradient
       id="linearGradient60448"
       x2="1"
       gradientTransform="matrix(0,61.464,61.464,0,314.57,512.11)"
       gradientUnits="userSpaceOnUse">
      <stop
         stop-color="#a08"
         offset="0"
         id="stop172489" />
      <stop
         offset="1"
         id="stop172491" />
    </linearGradient>
    <linearGradient
       id="linearGradient60450"
       x2="1"
       gradientTransform="matrix(0,60.108,60.108,0,314.58,512.79)"
       gradientUnits="userSpaceOnUse">
      <stop
         stop-color="#a08"
         offset="0"
         id="stop172494" />
      <stop
         offset="1"
         id="stop172496" />
    </linearGradient>
    <linearGradient
       id="linearGradient60452"
       x2="1"
       gradientTransform="matrix(0,72.846,72.846,0,314.58,506.42)"
       gradientUnits="userSpaceOnUse">
      <stop
         stop-color="#a08"
         offset="0"
         id="stop172499" />
      <stop
         offset="1"
         id="stop172501" />
    </linearGradient>
    <linearGradient
       id="linearGradient60454"
       x2="1"
       gradientTransform="matrix(0,85.594,85.594,0,314.58,500.05)"
       gradientUnits="userSpaceOnUse">
      <stop
         stop-color="#a08"
         offset="0"
         id="stop172504" />
      <stop
         offset="1"
         id="stop172506" />
    </linearGradient>
    <linearGradient
       id="linearGradient60456"
       x2="1"
       gradientTransform="matrix(0,97.897,97.897,0,314.58,493.9)"
       gradientUnits="userSpaceOnUse">
      <stop
         stop-color="#a08"
         offset="0"
         id="stop172509" />
      <stop
         offset="1"
         id="stop172511" />
    </linearGradient>
    <linearGradient
       id="linearGradient60458"
       x2="1"
       gradientTransform="matrix(0,109.27,109.27,0,314.58,488.21)"
       gradientUnits="userSpaceOnUse">
      <stop
         stop-color="#a08"
         offset="0"
         id="stop172514" />
      <stop
         offset="1"
         id="stop172516" />
    </linearGradient>
    <linearGradient
       id="linearGradient60460"
       x2="1"
       gradientTransform="matrix(0,119.15,119.15,0,314.58,483.27)"
       gradientUnits="userSpaceOnUse">
      <stop
         stop-color="#a08"
         offset="0"
         id="stop172519" />
      <stop
         offset="1"
         id="stop172521" />
    </linearGradient>
    <linearGradient
       id="linearGradient60462"
       x2="1"
       gradientTransform="matrix(0,126.96,126.96,0,314.58,479.36)"
       gradientUnits="userSpaceOnUse">
      <stop
         stop-color="#a08"
         offset="0"
         id="stop172524" />
      <stop
         offset="1"
         id="stop172526" />
    </linearGradient>
    <linearGradient
       id="linearGradient60464"
       x2="1"
       gradientTransform="matrix(0,132.07,132.07,0,314.57,476.81)"
       gradientUnits="userSpaceOnUse">
      <stop
         stop-color="#a08"
         offset="0"
         id="stop172529" />
      <stop
         offset="1"
         id="stop172531" />
    </linearGradient>
    <linearGradient
       id="linearGradient60466"
       x2="1"
       gradientTransform="matrix(0,133.86,133.86,0,314.58,475.92)"
       gradientUnits="userSpaceOnUse">
      <stop
         stop-color="#a08"
         offset="0"
         id="stop172534" />
      <stop
         offset="1"
         id="stop172536" />
    </linearGradient>
    <linearGradient
       id="linearGradient60468"
       x2="1"
       gradientTransform="matrix(0,131.73,131.73,0,314.58,476.98)"
       gradientUnits="userSpaceOnUse">
      <stop
         stop-color="#a08"
         offset="0"
         id="stop172539" />
      <stop
         offset="1"
         id="stop172541" />
    </linearGradient>
    <linearGradient
       id="linearGradient60470"
       x2="1"
       gradientTransform="matrix(0,148.68,148.68,0,314.58,468.5)"
       gradientUnits="userSpaceOnUse">
      <stop
         stop-color="#a08"
         offset="0"
         id="stop172544" />
      <stop
         offset="1"
         id="stop172546" />
    </linearGradient>
    <linearGradient
       id="linearGradient60472"
       x2="1"
       gradientTransform="matrix(0,176.48,176.48,0,314.58,454.6)"
       gradientUnits="userSpaceOnUse">
      <stop
         stop-color="#a08"
         offset="0"
         id="stop172549" />
      <stop
         offset="1"
         id="stop172551" />
    </linearGradient>
    <linearGradient
       id="linearGradient60474"
       x2="1"
       gradientTransform="matrix(0,203.68,203.68,0,314.57,441)"
       gradientUnits="userSpaceOnUse">
      <stop
         stop-color="#a08"
         offset="0"
         id="stop172554" />
      <stop
         offset="1"
         id="stop172556" />
    </linearGradient>
    <linearGradient
       id="linearGradient60476"
       x2="1"
       gradientTransform="matrix(0,229.22,229.22,0,314.58,428.24)"
       gradientUnits="userSpaceOnUse">
      <stop
         stop-color="#a08"
         offset="0"
         id="stop172559" />
      <stop
         offset="1"
         id="stop172561" />
    </linearGradient>
    <linearGradient
       id="linearGradient60478"
       x2="1"
       gradientTransform="matrix(0,251.97,251.97,0,314.58,416.86)"
       gradientUnits="userSpaceOnUse">
      <stop
         stop-color="#a08"
         offset="0"
         id="stop172564" />
      <stop
         offset="1"
         id="stop172566" />
    </linearGradient>
  </defs>
  <sodipodi:namedview
     id="namedview4"
     pagecolor="#ffffff"
     bordercolor="#000000"
     borderopacity="0.25"
     inkscape:showpageshadow="2"
     inkscape:pageopacity="0.0"
     inkscape:pagecheckerboard="0"
     inkscape:deskcolor="#d1d1d1"
     showgrid="false"
     inkscape:zoom="0.79625647"
     inkscape:cx="72.212914"
     inkscape:cy="379.27478"
     inkscape:window-width="1920"
     inkscape:window-height="1014"
     inkscape:window-x="1920"
     inkscape:window-y="29"
     inkscape:window-maximized="1"
     inkscape:current-layer="g43148" />
  <g
     id="g8"
     inkscape:groupmode="layer"
     inkscape:label="F-01200-logosCODEC_V2"
     transform="matrix(1.3333333,0,0,1.3333333,-178.61463,-48.656702)">
    <g
       id="g10" />
    <g
       id="g12">
      <g
         id="g43148"
         transform="matrix(4.1539643,0,0,4.1539643,-99.115361,308.00088)">
        <g
           transform="matrix(0,0.35278,0.35278,0,18.996,-66.127)"
           id="g175090">
          <g
             transform="translate(474.91,189)"
             id="g175020">
            <path
               d="m 0,0 v -0.499 l -4.416,-1.927 v 0.571 l 3.704,1.605 -3.704,1.608 v 0.57 z"
               fill="#ffffff"
               id="path175018" />
          </g>
          <path
             d="m 474.91,191.68 h -3.245 v 0.51 h 3.245 z m -4.23,0.6 c 0.19,0 0.337,-0.15 0.337,-0.35 0,-0.196 -0.147,-0.34 -0.337,-0.34 -0.177,0 -0.331,0.144 -0.331,0.34 0,0.2 0.154,0.35 0.331,0.35"
             fill="#ffffff"
             id="path175022" />
          <g
             transform="translate(473.29,196.02)"
             id="g175026">
            <path
               d="m 0,0 c -0.773,0 -1.267,-0.603 -1.267,-1.214 0,-0.673 0.494,-1.213 1.267,-1.213 0.775,0 1.259,0.54 1.259,1.213 C 1.259,-0.603 0.775,0 0,0 m 1.764,0.502 c 0.916,0 1.507,-0.76 1.507,-1.708 0,-0.813 -0.317,-1.347 -0.84,-1.602 l -0.33,0.434 c 0.439,0.225 0.682,0.551 0.682,1.168 0,0.657 -0.421,1.199 -1.086,1.206 H 1.08 C 1.479,-0.285 1.71,-0.741 1.71,-1.293 1.71,-2.16 1.028,-2.915 0,-2.915 c -1.03,0 -1.704,0.755 -1.704,1.622 0,0.552 0.229,1.008 0.62,1.293 h -0.54 v 0.502 z"
               fill="#ffffff"
               id="path175024" />
          </g>
          <path
             d="m 474.91,197.73 h -3.245 v 0.509 h 3.245 z m -4.23,0.601 c 0.19,0 0.337,-0.153 0.337,-0.349 0,-0.198 -0.147,-0.342 -0.337,-0.342 -0.177,0 -0.331,0.144 -0.331,0.342 0,0.196 0.154,0.349 0.331,0.349"
             fill="#ffffff"
             id="path175028" />
          <g
             transform="translate(474.08,199.88)"
             id="g175032">
            <path
               d="m 0,0 c 0.263,0 0.432,0.183 0.432,0.458 0,0.128 -0.039,0.262 -0.1,0.392 L 0.751,0.953 C 0.842,0.796 0.918,0.63 0.918,0.38 0.918,-0.154 0.559,-0.505 0.026,-0.505 H -4.247 V 0 Z"
               fill="#ffffff"
               id="path175030" />
          </g>
          <g
             transform="translate(473.55,203.6)"
             id="g175036">
            <path
               d="m 0,0 h -0.166 v -1.098 c 0,-0.537 0.254,-0.821 0.615,-0.821 0.341,0 0.585,0.306 0.585,0.771 C 1.034,-0.515 0.592,0 0,0 M -0.747,0.491 H 1.36 V 0 H 0.87 c 0.337,-0.248 0.579,-0.656 0.579,-1.22 0,-0.708 -0.411,-1.178 -0.993,-1.178 -0.601,0 -1.02,0.456 -1.02,1.304 V 0 h -0.149 c -0.507,0 -0.816,-0.33 -0.816,-0.828 0,-0.495 0.251,-0.839 0.659,-0.911 l -0.108,-0.48 c -0.588,0.103 -0.987,0.652 -0.987,1.363 0,0.809 0.432,1.347 1.218,1.347"
               fill="#ffffff"
               id="path175034" />
          </g>
          <g
             transform="translate(473.29,207.71)"
             id="g175040">
            <path
               d="m 0,0 c -0.773,0 -1.267,-0.6 -1.267,-1.213 0,-0.673 0.494,-1.213 1.267,-1.213 0.775,0 1.259,0.54 1.259,1.213 C 1.259,-0.6 0.775,0 0,0 M 1.622,0.501 V 0 H 1.08 c 0.399,-0.284 0.63,-0.74 0.63,-1.295 0,-0.864 -0.682,-1.62 -1.71,-1.62 -1.03,0 -1.704,0.756 -1.704,1.62 0,0.555 0.229,1.011 0.62,1.295 h -2.371 v 0.501 z"
               fill="#ffffff"
               id="path175038" />
          </g>
          <g
             transform="translate(473.55,211.47)"
             id="g175044">
            <path
               d="m 0,0 h -0.166 v -1.099 c 0,-0.538 0.254,-0.819 0.615,-0.819 0.341,0 0.585,0.304 0.585,0.772 C 1.034,-0.516 0.592,0 0,0 M -0.747,0.488 H 1.36 V 0 H 0.87 c 0.337,-0.249 0.579,-0.658 0.579,-1.218 0,-0.712 -0.411,-1.183 -0.993,-1.183 -0.601,0 -1.02,0.455 -1.02,1.308 V 0 h -0.149 c -0.507,0 -0.816,-0.328 -0.816,-0.831 0,-0.493 0.251,-0.837 0.659,-0.905 L -0.978,-2.22 c -0.588,0.104 -0.987,0.654 -0.987,1.364 0,0.811 0.432,1.344 1.218,1.344"
               fill="#ffffff"
               id="path175042" />
          </g>
          <g
             transform="translate(474.91,219.38)"
             id="g175048">
            <path
               d="M 0,0 V -0.499 H -3.239 L 0,-2.206 V -2.542 L -3.239,-4.258 H 0 v -0.504 h -4.416 v 0.461 l 3.641,1.923 -3.641,1.922 V 0 Z"
               fill="#ffffff"
               id="path175046" />
          </g>
          <path
             d="m 474.91,220.6 h -3.245 v 0.503 h 3.245 z m -4.23,0.596 c 0.19,0 0.337,-0.151 0.337,-0.35 0,-0.201 -0.147,-0.341 -0.337,-0.341 -0.177,0 -0.331,0.14 -0.331,0.341 0,0.199 0.154,0.35 0.331,0.35"
             fill="#ffffff"
             id="path175050" />
          <g
             transform="translate(472.97,225.35)"
             id="g175054">
            <path
               d="M 0,0 H 1.941 V -0.503 H 0.089 c -0.599,0 -1.013,-0.359 -1.013,-0.903 0,-0.68 0.457,-1.125 1.306,-1.125 H 1.941 V -3.03 h -3.245 v 0.499 h 0.539 c -0.397,0.258 -0.619,0.678 -0.619,1.228 C -1.384,-0.52 -0.827,0 0,0"
               fill="#ffffff"
               id="path175052" />
          </g>
          <g
             transform="translate(473.01,226.64)"
             id="g175058">
            <path
               d="M 0,0 V 2.257 C -0.637,2.166 -0.991,1.711 -0.991,1.163 -0.991,0.642 -0.637,0.095 0,0 m 0.38,2.768 v -2.79 c 0.73,0.041 1.166,0.596 1.166,1.158 0,0.461 -0.177,0.877 -0.702,1.105 l 0.108,0.446 c 0.676,-0.25 1.035,-0.822 1.035,-1.551 0,-0.862 -0.668,-1.646 -1.7,-1.646 -1.049,0 -1.714,0.784 -1.714,1.673 0,0.884 0.65,1.567 1.617,1.605 z"
               fill="#ffffff"
               id="path175056" />
          </g>
          <g
             transform="translate(473.29,232.88)"
             id="g175062">
            <path
               d="m 0,0 c -0.773,0 -1.267,-0.595 -1.267,-1.209 0,-0.672 0.494,-1.217 1.267,-1.217 0.775,0 1.259,0.545 1.259,1.217 C 1.259,-0.595 0.775,0 0,0 M 1.622,0.506 V 0 H 1.08 c 0.399,-0.279 0.63,-0.736 0.63,-1.286 0,-0.865 -0.682,-1.62 -1.71,-1.62 -1.03,0 -1.704,0.755 -1.704,1.62 0,0.55 0.229,1.007 0.62,1.286 h -2.371 v 0.506 z"
               fill="#ffffff"
               id="path175060" />
          </g>
          <g
             transform="translate(474.91,237.51)"
             id="g175066">
            <path
               d="m 0,0 v -0.509 h -0.525 c 0.387,-0.257 0.613,-0.688 0.613,-1.222 0,-0.786 -0.561,-1.31 -1.388,-1.31 h -1.941 v 0.51 h 1.853 c 0.604,0 1.001,0.354 1.001,0.894 0,0.681 -0.449,1.128 -1.295,1.128 H -3.241 V 0 Z"
               fill="#ffffff"
               id="path175064" />
          </g>
          <g
             transform="translate(473.8,241.13)"
             id="g175070">
            <path
               d="m 0,0 0.123,0.464 c 0.648,-0.198 1.078,-0.822 1.078,-1.542 0,-0.916 -0.676,-1.693 -1.711,-1.693 -1.017,0 -1.703,0.777 -1.703,1.693 0,0.712 0.412,1.335 1.075,1.543 l 0.147,-0.482 c -0.497,-0.151 -0.762,-0.586 -0.762,-1.061 0,-0.663 0.503,-1.204 1.243,-1.204 0.76,0 1.244,0.541 1.244,1.204 C 0.734,-0.603 0.475,-0.168 0,0"
               fill="#ffffff"
               id="path175068" />
          </g>
          <g
             transform="translate(473.55,244.56)"
             id="g175074">
            <path
               d="m 0,0 h -0.166 v -1.105 c 0,-0.537 0.254,-0.819 0.615,-0.819 0.341,0 0.585,0.299 0.585,0.769 C 1.034,-0.517 0.592,0 0,0 M -0.747,0.481 H 1.36 V 0 H 0.87 c 0.337,-0.256 0.579,-0.667 0.579,-1.222 0,-0.714 -0.411,-1.178 -0.993,-1.178 -0.601,0 -1.02,0.448 -1.02,1.303 V 0 h -0.149 c -0.507,0 -0.816,-0.34 -0.816,-0.83 0,-0.499 0.251,-0.847 0.659,-0.913 l -0.108,-0.483 c -0.588,0.107 -0.987,0.652 -0.987,1.363 0,0.814 0.432,1.344 1.218,1.344"
               fill="#ffffff"
               id="path175072" />
          </g>
          <g
             transform="translate(473.8,248.52)"
             id="g175078">
            <path
               d="m 0,0 0.123,0.462 c 0.648,-0.189 1.078,-0.813 1.078,-1.532 0,-0.92 -0.676,-1.698 -1.711,-1.698 -1.017,0 -1.703,0.778 -1.703,1.698 0,0.707 0.412,1.334 1.075,1.544 l 0.147,-0.483 c -0.497,-0.159 -0.762,-0.582 -0.762,-1.061 0,-0.669 0.503,-1.209 1.243,-1.209 0.76,0 1.244,0.54 1.244,1.209 C 0.734,-0.591 0.475,-0.168 0,0"
               fill="#ffffff"
               id="path175076" />
          </g>
          <path
             d="m 474.91,249.89 h -3.245 v 0.511 h 3.245 z m -4.23,0.599 c 0.19,0 0.337,-0.142 0.337,-0.346 0,-0.196 -0.147,-0.34 -0.337,-0.34 -0.177,0 -0.331,0.144 -0.331,0.34 0,0.204 0.154,0.346 0.331,0.346"
             fill="#ffffff"
             id="path175080" />
          <g
             transform="translate(471.14,252.86)"
             id="g175084">
            <path
               d="M 0,0 -0.926,0.531 V 1.118 L 0,0.445 Z m 2.146,1.412 c -0.747,0 -1.25,-0.558 -1.25,-1.225 0,-0.672 0.503,-1.242 1.25,-1.242 0.745,0 1.261,0.57 1.261,1.242 0,0.667 -0.516,1.225 -1.261,1.225 m 0,0.487 c 0.993,0 1.708,-0.755 1.708,-1.712 0,-0.969 -0.715,-1.727 -1.708,-1.727 -1.004,0 -1.695,0.758 -1.695,1.727 0,0.957 0.691,1.712 1.695,1.712"
               fill="#ffffff"
               id="path175082" />
          </g>
          <g
             transform="translate(472.97,258.65)"
             id="g175088">
            <path
               d="M 0,0 H 1.941 V -0.498 H 0.089 c -0.599,0 -1.013,-0.369 -1.013,-0.903 0,-0.685 0.457,-1.129 1.306,-1.129 h 1.559 v -0.501 h -3.245 v 0.501 h 0.539 c -0.397,0.262 -0.619,0.678 -0.619,1.221 C -1.384,-0.523 -0.827,0 0,0"
               fill="#ffffff"
               id="path175086" />
          </g>
        </g>
        <g
           transform="translate(-9.5576,-0.55071)"
           id="g175282">
          <g
             transform="matrix(0.35278,0,0,-0.35278,99.485,15.56)"
             clip-path="url(#clipPath99720)"
             id="g175242">
            <path
               d="m 0,0 17.174,-16.954 c 0,0 4.982,-4.724 12.95,-4.454 7.968,0.27 12.371,4.234 12.371,4.234 l 24.22,24 z"
               fill="#ffffff"
               id="path175240" />
          </g>
          <g
             transform="matrix(0.35278,0,0,-0.35278,-0.8631,171.14)"
             id="g175280">
            <path
               d="m 302.58,569.59 -16.996,-31.051 c -0.727,-1.328 -0.893,-2.859 -0.468,-4.312 0.426,-1.453 1.39,-2.653 2.718,-3.38 l 31.052,-16.995 c 0.846,-0.464 1.773,-0.699 2.712,-0.699 0.534,0 1.072,0.077 1.599,0.231 1.452,0.424 2.653,1.389 3.379,2.718 l 16.997,31.051 c 1.499,2.741 0.49,6.191 -2.25,7.691 l -31.052,16.996 c -0.861,0.471 -1.793,0.695 -2.712,0.695 -2.005,0 -3.951,-1.065 -4.979,-2.945 m 16.627,-55.151 -31.051,16.996 c -1.171,0.641 -2.022,1.699 -2.397,2.98 -0.375,1.281 -0.228,2.631 0.413,3.801 l 16.996,31.052 c 0.907,1.658 2.623,2.597 4.391,2.597 0.81,0 1.631,-0.197 2.391,-0.613 L 341,554.256 c 2.417,-1.323 3.307,-4.365 1.985,-6.781 l -16.997,-31.052 c -0.64,-1.17 -1.699,-2.021 -2.98,-2.396 -0.464,-0.136 -0.938,-0.204 -1.41,-0.204 -0.827,0 -1.645,0.208 -2.391,0.616"
               fill="url(#linearGradient60444)"
               id="path175244"
               style="fill:url(#linearGradient60444)" />
            <path
               d="m 299.99,572.84 c -1.479,-0.72 -2.589,-1.972 -3.126,-3.526 L 284.3,532.96 l 0.343,-0.119 -0.343,0.119 c -0.538,-1.555 -0.437,-3.225 0.282,-4.704 0.719,-1.48 1.971,-2.589 3.525,-3.127 l 36.355,-12.564 c 0.664,-0.229 1.34,-0.338 2.006,-0.338 2.553,0 4.946,1.601 5.825,4.146 l 12.564,36.355 c 0.537,1.554 0.436,3.225 -0.283,4.704 -0.719,1.479 -1.972,2.589 -3.526,3.126 l -36.354,12.564 c -0.659,0.228 -1.339,0.341 -2.017,0.341 -0.92,0 -1.835,-0.209 -2.687,-0.623 m 24.71,-59.587 -36.354,12.564 c -1.371,0.474 -2.475,1.453 -3.11,2.758 -0.633,1.304 -0.722,2.776 -0.248,4.147 l 12.564,36.354 c 0.473,1.371 1.453,2.474 2.757,3.109 0.751,0.365 1.558,0.55 2.369,0.55 0.598,0 1.197,-0.1 1.778,-0.301 L 340.81,559.87 c 1.371,-0.473 2.476,-1.452 3.109,-2.756 0.635,-1.305 0.723,-2.778 0.249,-4.149 l -12.564,-36.354 c -0.775,-2.244 -2.884,-3.657 -5.135,-3.656 -0.587,0 -1.184,0.096 -1.769,0.298"
               fill="url(#linearGradient60446)"
               id="path175246"
               style="fill:url(#linearGradient60446)" />
            <path
               d="m 290.79,567.98 -6.851,-41.23 c -0.294,-1.762 0.118,-3.534 1.157,-4.988 1.039,-1.453 2.582,-2.415 4.345,-2.708 l 41.23,-6.852 c 0.37,-0.062 0.737,-0.091 1.101,-0.091 3.21,0 6.052,2.324 6.596,5.594 l 6.852,41.23 c 0.604,3.639 -1.864,7.092 -5.503,7.697 l -41.23,6.851 c -0.37,0.062 -0.737,0.092 -1.1,0.092 -3.211,-0.001 -6.053,-2.325 -6.597,-5.595 m 40.011,-54.998 -41.23,6.853 c -1.554,0.258 -2.915,1.106 -3.831,2.388 -0.917,1.282 -1.279,2.843 -1.021,4.398 l 6.852,41.23 c 0.479,2.883 2.985,4.932 5.816,4.932 0.32,0 0.645,-0.026 0.971,-0.08 l 41.229,-6.852 c 3.209,-0.533 5.386,-3.578 4.852,-6.786 l -6.851,-41.23 c -0.48,-2.883 -2.986,-4.934 -5.817,-4.934 -0.32,0 -0.644,0.027 -0.97,0.081"
               fill="url(#linearGradient60448)"
               id="path175248"
               style="fill:url(#linearGradient60448)" />
            <path
               d="m 337.18,572.9 -45.414,-0.153 c -1.942,-0.007 -3.765,-0.769 -5.134,-2.147 -1.368,-1.377 -2.118,-3.205 -2.111,-5.147 l 0.152,-45.415 c 0.007,-1.942 0.769,-3.764 2.147,-5.133 1.372,-1.363 3.19,-2.113 5.123,-2.113 0.008,0 0.016,0 0.025,10e-4 l 45.415,0.153 c 4.009,0.014 7.258,3.285 7.245,7.294 l -0.153,45.416 c -0.006,1.941 -0.77,3.764 -2.147,5.132 -1.371,1.363 -3.19,2.113 -5.122,2.113 -0.008,0 -0.017,0 -0.026,-10e-4 m -49.754,-57.385 c -1.214,1.206 -1.887,2.814 -1.893,4.526 l -0.153,45.415 c -0.005,1.712 0.655,3.324 1.862,4.539 1.207,1.215 2.814,1.887 4.526,1.892 l 45.415,0.153 h 0.023 c 1.703,0 3.307,-0.66 4.517,-1.862 1.214,-1.206 1.886,-2.813 1.892,-4.526 l 0.153,-45.415 c 0.012,-3.534 -2.854,-6.419 -6.389,-6.431 l -45.415,-0.154 h -0.021 c -1.705,0 -3.308,0.661 -4.517,1.863"
               fill="url(#linearGradient60450)"
               id="path175250"
               style="fill:url(#linearGradient60450)" />
            <path
               d="m 333.33,579.15 -48.625,-8.418 c -4.292,-0.744 -7.179,-4.84 -6.436,-9.132 l 8.418,-48.624 c 0.36,-2.08 1.508,-3.894 3.233,-5.109 1.347,-0.95 2.919,-1.445 4.534,-1.445 0.453,0 0.909,0.039 1.364,0.118 l 48.625,8.418 c 2.079,0.36 3.894,1.508 5.11,3.232 1.215,1.725 1.686,3.82 1.326,5.899 l -8.418,48.625 c -0.36,2.079 -1.508,3.894 -3.232,5.11 -1.348,0.948 -2.92,1.444 -4.535,1.444 -0.452,0 -0.909,-0.039 -1.364,-0.118 m -42.872,-70.52 c -1.521,1.072 -2.533,2.672 -2.85,4.505 l -8.419,48.625 c -0.655,3.784 1.891,7.396 5.675,8.052 l 48.626,8.417 c 0.4,0.07 0.798,0.103 1.191,0.103 3.323,0 6.274,-2.393 6.86,-5.777 l 8.418,-48.625 c 0.317,-1.834 -0.098,-3.68 -1.17,-5.201 -1.071,-1.521 -2.672,-2.533 -4.505,-2.851 l -48.625,-8.418 c -0.402,-0.07 -0.804,-0.104 -1.203,-0.104 -1.424,0 -2.81,0.437 -3.998,1.274"
               fill="url(#linearGradient60452)"
               id="path175252"
               style="fill:url(#linearGradient60452)" />
            <path
               d="m 328.07,585.15 -50.562,-17.857 c -4.463,-1.576 -6.811,-6.489 -5.236,-10.952 l 17.857,-50.562 c 0.764,-2.162 2.323,-3.896 4.392,-4.885 1.173,-0.562 2.431,-0.845 3.695,-0.845 0.963,0 1.93,0.165 2.865,0.495 l 50.562,17.856 c 4.463,1.577 6.811,6.489 5.235,10.952 l -17.857,50.562 c -0.763,2.162 -2.323,3.897 -4.391,4.886 -1.174,0.561 -2.432,0.843 -3.696,0.843 -0.963,0 -1.929,-0.164 -2.864,-0.493 m -33.112,-83.341 c -1.823,0.872 -3.199,2.402 -3.872,4.308 l -17.857,50.562 c -1.389,3.935 0.681,8.268 4.616,9.657 l 50.562,17.856 c 1.907,0.673 3.961,0.564 5.785,-0.308 1.824,-0.872 3.199,-2.402 3.872,-4.308 l 17.857,-50.561 c 1.39,-3.936 -0.681,-8.267 -4.617,-9.657 l -50.561,-17.857 c -0.824,-0.291 -1.676,-0.436 -2.526,-0.436 -1.114,0 -2.224,0.249 -3.259,0.744"
               fill="url(#linearGradient60454)"
               id="path175254"
               style="fill:url(#linearGradient60454)" />
            <path
               d="m 321.34,590.62 -50.922,-28.319 c -4.493,-2.5 -6.117,-8.19 -3.618,-12.685 l 28.321,-50.921 c 1.702,-3.063 4.887,-4.792 8.166,-4.792 1.533,0 3.085,0.378 4.517,1.174 l 50.921,28.319 c 2.178,1.212 3.753,3.197 4.436,5.593 0.684,2.396 0.394,4.915 -0.818,7.092 l -28.319,50.921 c -1.211,2.177 -3.197,3.753 -5.593,4.436 -0.848,0.242 -1.712,0.362 -2.571,0.362 -1.566,0 -3.114,-0.398 -4.52,-1.18 m -25.256,-91.389 -28.32,50.922 c -2.203,3.962 -0.772,8.98 3.191,11.184 l 50.921,28.319 c 1.919,1.069 4.14,1.324 6.253,0.722 2.112,-0.603 3.864,-1.992 4.931,-3.911 l 28.319,-50.922 c 1.069,-1.92 1.324,-4.14 0.722,-6.253 -0.603,-2.113 -1.991,-3.864 -3.911,-4.932 l -50.921,-28.319 c -1.263,-0.702 -2.633,-1.035 -3.985,-1.035 -2.89,0 -5.699,1.524 -7.2,4.225"
               fill="url(#linearGradient60456)"
               id="path175256"
               style="fill:url(#linearGradient60456)" />
            <path
               d="m 313.14,595.25 -49.404,-39.594 c -4.361,-3.494 -5.065,-9.885 -1.571,-14.246 l 39.594,-49.404 c 2,-2.495 4.946,-3.793 7.919,-3.793 2.223,0 4.461,0.726 6.328,2.222 l 49.405,39.594 c 2.112,1.693 3.439,4.107 3.735,6.798 0.297,2.69 -0.472,5.336 -2.165,7.448 l -39.594,49.405 c -1.693,2.112 -4.107,3.439 -6.798,3.735 -0.379,0.042 -0.757,0.063 -1.133,0.063 -2.292,0 -4.501,-0.773 -6.316,-2.228 M 302.695,492.75 263.1,542.155 c -3.081,3.845 -2.459,9.48 1.386,12.561 l 49.404,39.594 c 1.601,1.283 3.549,1.965 5.571,1.965 0.33,0 0.663,-0.019 0.996,-0.055 2.374,-0.262 4.502,-1.432 5.994,-3.294 l 39.594,-49.406 c 1.493,-1.862 2.171,-4.195 1.91,-6.567 -0.262,-2.373 -1.432,-4.501 -3.294,-5.994 l -49.405,-39.594 c -1.645,-1.319 -3.618,-1.959 -5.579,-1.959 -2.621,0 -5.22,1.144 -6.982,3.344"
               fill="url(#linearGradient60458)"
               id="path175258"
               style="fill:url(#linearGradient60458)" />
            <path
               d="m 303.52,598.73 -45.731,-51.396 c -4.036,-4.537 -3.629,-11.511 0.907,-15.547 l 51.397,-45.731 c 2.033,-1.81 4.606,-2.785 7.306,-2.785 0.217,0 0.437,0.006 0.655,0.018 2.937,0.172 5.631,1.477 7.586,3.674 l 45.731,51.397 c 1.955,2.197 2.938,5.024 2.767,7.961 -0.172,2.937 -1.476,5.63 -3.674,7.585 l -51.396,45.731 c -2.095,1.864 -4.709,2.781 -7.315,2.781 -3.036,-10e-4 -6.06,-1.246 -8.233,-3.688 m 7.439,-111.7 -51.397,45.73 c -4,3.559 -4.358,9.709 -0.8,13.71 l 45.731,51.396 c 3.56,4 9.709,4.359 13.709,0.8 l 51.396,-45.731 c 1.938,-1.724 3.088,-4.099 3.239,-6.689 0.151,-2.59 -0.715,-5.083 -2.439,-7.021 l -45.731,-51.396 c -1.724,-1.937 -4.099,-3.088 -6.688,-3.239 -0.193,-0.011 -0.385,-0.017 -0.577,-0.017 -2.382,0 -4.65,0.861 -6.443,2.457"
               fill="url(#linearGradient60460)"
               id="path175260"
               style="fill:url(#linearGradient60460)" />
            <path
               d="m 300.03,606.02 c -3.115,-0.717 -5.764,-2.605 -7.46,-5.315 l -39.649,-63.372 c -3.499,-5.594 -1.797,-12.992 3.797,-16.491 l 63.373,-39.649 c 1.926,-1.206 4.105,-1.827 6.324,-1.827 0.901,0 1.808,0.102 2.708,0.31 3.115,0.717 5.763,2.604 7.459,5.314 l 39.65,63.372 c 1.694,2.71 2.233,5.917 1.516,9.032 -0.717,3.115 -2.604,5.764 -5.314,7.459 l -63.373,39.65 c -1.927,1.206 -4.106,1.826 -6.324,1.826 -0.901,0 -1.808,-0.102 -2.707,-0.309 m 20.811,-123.63 -63.373,39.649 c -4.931,3.086 -6.434,9.609 -3.347,14.541 l 39.649,63.373 c 1.495,2.389 3.83,4.053 6.577,4.686 0.793,0.183 1.593,0.273 2.388,0.273 1.956,0 3.877,-0.547 5.576,-1.61 l 63.373,-39.65 c 2.389,-1.496 4.053,-3.831 4.685,-6.577 0.633,-2.747 0.158,-5.575 -1.337,-7.964 l -39.65,-63.373 c -1.494,-2.389 -3.83,-4.053 -6.577,-4.685 -0.793,-0.183 -1.593,-0.273 -2.388,-0.273 -1.955,0 -3.877,0.547 -5.576,1.61"
               fill="url(#linearGradient60462)"
               id="path175262"
               style="fill:url(#linearGradient60462)" />
            <path
               d="m 287.51,607.88 c -3.207,-1.334 -5.702,-3.838 -7.026,-7.049 l -30.958,-75.097 c -1.323,-3.212 -1.318,-6.746 0.017,-9.952 1.335,-3.206 3.838,-5.701 7.049,-7.025 l 75.098,-30.958 c 1.598,-0.659 3.277,-0.989 4.955,-0.989 1.693,0 3.386,0.335 4.996,1.005 3.207,1.335 5.701,3.838 7.024,7.049 l 30.959,75.098 c 2.733,6.628 -0.437,14.244 -7.065,16.976 l -75.098,30.958 c -1.599,0.66 -3.278,0.989 -4.956,0.989 -1.693,0 -3.385,-0.335 -4.995,-1.005 m 44.766,-128.66 -75.098,30.958 c -2.832,1.167 -5.038,3.368 -6.216,6.195 -1.176,2.828 -1.181,5.943 -0.014,8.775 l 30.958,75.097 c 1.167,2.831 3.367,5.039 6.194,6.215 2.828,1.177 5.944,1.183 8.775,0.015 l 75.098,-30.958 c 5.844,-2.41 8.639,-9.125 6.23,-14.97 l -30.959,-75.096 c -1.167,-2.832 -3.367,-5.04 -6.194,-6.216 -1.42,-0.591 -2.912,-0.886 -4.405,-0.886 -1.48,0 -2.96,0.29 -4.369,0.871"
               fill="url(#linearGradient60464)"
               id="path175264"
               style="fill:url(#linearGradient60464)" />
            <path
               d="m 267.52,598.76 -19.515,-86.078 c -0.836,-3.681 -0.187,-7.467 1.826,-10.659 2.012,-3.192 5.148,-5.41 8.828,-6.244 l 86.078,-19.517 c 1.048,-0.237 2.094,-0.352 3.126,-0.352 6.45,0 12.292,4.457 13.777,11.008 l 19.516,86.078 c 0.835,3.68 0.186,7.466 -1.826,10.658 -2.013,3.192 -5.148,5.41 -8.828,6.244 l -86.079,19.517 c -1.048,0.237 -2.094,0.351 -3.126,0.351 -6.45,0 -12.292,-4.456 -13.777,-11.006 m 77.586,-120.87 -86.077,19.517 c -3.246,0.736 -6.011,2.691 -7.785,5.506 -1.774,2.815 -2.347,6.153 -1.61,9.398 l 19.515,86.079 c 1.519,6.698 8.205,10.912 14.904,9.395 l 86.079,-19.517 c 3.245,-0.735 6.01,-2.691 7.784,-5.506 1.775,-2.815 2.346,-6.152 1.611,-9.398 l -19.516,-86.078 c -1.31,-5.777 -6.461,-9.705 -12.15,-9.705 -0.909,0 -1.832,0.1 -2.755,0.309"
               fill="url(#linearGradient60466)"
               id="path175266"
               style="fill:url(#linearGradient60466)" />
            <path
               d="m 259.08,604.79 c -3.054,-2.736 -4.861,-6.498 -5.085,-10.592 l -5.263,-95.763 c -0.463,-8.453 6.035,-15.707 14.487,-16.172 l 95.763,-5.262 c 0.288,-0.015 0.575,-0.024 0.862,-0.024 3.782,0 7.385,1.375 10.224,3.918 3.054,2.736 4.86,6.498 5.085,10.593 l 5.263,95.763 c 0.225,4.094 -1.158,8.031 -3.895,11.086 -2.736,3.054 -6.498,4.86 -10.592,5.085 l -95.763,5.262 c -0.287,0.016 -0.573,0.024 -0.859,0.024 -3.785,0 -7.387,-1.374 -10.227,-3.918 m 100,-125.98 -95.764,5.263 c -7.453,0.409 -13.182,6.806 -12.772,14.259 l 5.262,95.763 c 0.198,3.611 1.79,6.927 4.484,9.34 2.503,2.243 5.68,3.454 9.015,3.454 0.252,0 0.506,-0.007 0.76,-0.02 l 95.762,-5.263 c 3.611,-0.198 6.928,-1.791 9.34,-4.483 2.413,-2.694 3.633,-6.165 3.434,-9.776 l -5.262,-95.763 c -0.198,-3.61 -1.791,-6.927 -4.484,-9.34 -2.508,-2.246 -5.692,-3.454 -9.03,-3.454 -0.248,0 -0.496,0.007 -0.745,0.02"
               fill="url(#linearGradient60468)"
               id="path175268"
               style="fill:url(#linearGradient60468)" />
            <path
               d="M 358.58,617.08 255.03,605.313 c -9.14,-1.039 -15.73,-9.32 -14.692,-18.46 l 11.769,-103.55 c 0.966,-8.504 8.2,-14.8 16.562,-14.8 0.627,0 1.259,0.035 1.896,0.108 l 103.55,11.769 c 4.427,0.503 8.393,2.699 11.168,6.185 2.775,3.487 4.026,7.846 3.522,12.273 l -11.767,103.55 c -0.503,4.427 -2.7,8.394 -6.187,11.168 -2.982,2.373 -6.601,3.632 -10.356,3.632 -0.636,0 -1.275,-0.036 -1.916,-0.109 m -104.51,-133.55 -11.767,103.55 c -0.917,8.057 4.895,15.359 12.954,16.275 l 103.55,11.768 c 0.565,0.065 1.129,0.096 1.69,0.096 3.31,0 6.502,-1.11 9.131,-3.202 3.074,-2.446 5.011,-5.944 5.454,-9.848 l 11.769,-103.55 c 0.444,-3.904 -0.66,-7.747 -3.106,-10.821 -2.447,-3.074 -5.944,-5.011 -9.849,-5.455 l -103.55,-11.768 c -0.563,-0.064 -1.122,-0.095 -1.675,-0.095 -7.371,0 -13.749,5.554 -14.601,13.049"
               fill="url(#linearGradient60470)"
               id="path175270"
               style="fill:url(#linearGradient60470)" />
            <path
               d="M 348.23,630.37 239.44,598.943 c -9.602,-2.774 -15.157,-12.843 -12.383,-22.445 l 31.427,-108.79 c 1.344,-4.651 4.418,-8.501 8.658,-10.841 2.719,-1.5 5.708,-2.263 8.73,-2.263 1.689,0 3.39,0.238 5.057,0.72 l 108.79,31.427 -0.297,1.031 0.297,-1.031 c 4.653,1.344 8.502,4.419 10.841,8.658 2.339,4.24 2.887,9.136 1.543,13.788 l -31.427,108.79 c -2.29,7.928 -9.554,13.098 -17.422,13.098 -1.661,0 -3.349,-0.23 -5.023,-0.714 m -80.054,-171.63 c -3.738,2.063 -6.449,5.458 -7.634,9.559 l -31.427,108.79 c -2.446,8.466 2.453,17.345 10.919,19.791 l 108.79,31.427 c 1.477,0.427 2.964,0.629 4.429,0.629 6.937,0 13.342,-4.558 15.362,-11.549 l 31.427,-108.79 c 1.186,-4.102 0.702,-8.419 -1.361,-12.157 -2.061,-3.739 -5.456,-6.449 -9.558,-7.634 l -108.79,-31.428 c -1.47,-0.425 -2.968,-0.635 -4.458,-0.635 -2.664,0 -5.301,0.673 -7.699,1.996"
               fill="url(#linearGradient60472)"
               id="path175272"
               style="fill:url(#linearGradient60472)" />
            <path
               d="M 334.72,642.72 223.88,589.279 c -4.738,-2.285 -8.304,-6.278 -10.039,-11.245 -1.736,-4.967 -1.433,-10.312 0.852,-15.051 l 53.441,-110.84 c 2.285,-4.739 6.279,-8.305 11.246,-10.04 2.126,-0.743 4.323,-1.112 6.511,-1.112 2.922,0 5.83,0.658 8.539,1.965 l 110.84,53.441 c 9.782,4.717 13.904,16.513 9.187,26.296 l -53.441,110.84 c -3.391,7.033 -10.441,11.141 -17.773,11.141 -2.865,0 -5.774,-0.628 -8.524,-1.954 M 280.152,444.31 c -4.379,1.529 -7.901,4.674 -9.916,8.853 l -53.441,110.84 c -2.014,4.178 -2.282,8.892 -0.752,13.271 1.53,4.379 4.674,7.9 8.853,9.915 l 110.84,53.441 c 2.424,1.169 4.988,1.723 7.516,1.723 6.463,0 12.681,-3.622 15.67,-9.823 l 53.443,-110.84 c 4.158,-8.626 0.524,-19.027 -8.101,-23.187 l 0.505,-1.05 -0.505,1.05 -110.84,-53.441 c -2.39,-1.152 -4.954,-1.733 -7.531,-1.733 -1.929,0 -3.865,0.326 -5.74,0.981"
               fill="url(#linearGradient60474)"
               id="path175274"
               style="fill:url(#linearGradient60474)" />
            <path
               d="M 318,653.5 208.98,576.105 c -4.662,-3.309 -7.756,-8.236 -8.712,-13.873 -0.956,-5.636 0.34,-11.306 3.649,-15.969 l 77.396,-109.02 c 4.168,-5.871 10.776,-9.005 17.482,-9.005 4.284,0 8.608,1.279 12.359,3.943 l 109.02,77.396 c 4.661,3.309 7.755,8.235 8.711,13.872 0.957,5.636 -0.339,11.307 -3.649,15.969 l -77.396,109.02 c -3.309,4.662 -8.236,7.755 -13.872,8.712 -1.21,0.205 -2.421,0.306 -3.624,0.306 -4.4,0 -8.684,-1.357 -12.345,-3.956 M 283.372,438.7 205.976,547.72 c -2.918,4.11 -4.061,9.11 -3.218,14.08 0.844,4.97 3.571,9.314 7.682,12.232 l 109.02,77.397 c 3.228,2.29 7.005,3.487 10.884,3.487 1.061,0 2.13,-0.09 3.196,-0.27 4.97,-0.843 9.314,-3.572 12.232,-7.682 l 77.397,-109.02 c 2.918,-4.11 4.06,-9.11 3.217,-14.08 -0.843,-4.97 -3.571,-9.313 -7.681,-12.231 l 0.732,-1.032 -0.732,1.032 -109.02,-77.397 c -3.309,-2.349 -7.12,-3.477 -10.898,-3.477 -5.912,0 -11.74,2.765 -15.415,7.942"
               fill="url(#linearGradient60476)"
               id="path175276"
               style="fill:url(#linearGradient60476)" />
            <path
               d="M 298.13,662.02 195.4,559.29 c -4.393,-4.393 -6.812,-10.233 -6.812,-16.444 0,-6.213 2.419,-12.052 6.812,-16.445 l 102.73,-102.73 c 4.393,-4.392 10.233,-6.811 16.445,-6.811 6.212,0 12.052,2.419 16.444,6.811 l 102.73,102.73 c 4.393,4.393 6.811,10.232 6.811,16.445 0,6.211 -2.418,12.051 -6.811,16.444 l -102.73,102.73 c -4.392,4.392 -10.232,6.812 -16.444,6.812 -6.212,0 -12.052,-2.42 -16.445,-6.812 m 1.945,-236.4 -102.73,102.73 c -3.873,3.873 -6.006,9.023 -6.006,14.5 0,5.477 2.133,10.626 6.006,14.5 l 102.73,102.73 c 3.873,3.873 9.023,6.007 14.5,6.007 5.478,0 10.627,-2.134 14.5,-6.007 l 102.73,-102.73 c 3.872,-3.874 6.005,-9.023 6.005,-14.5 0,-5.477 -2.133,-10.627 -6.005,-14.5 L 329.075,425.62 c -3.873,-3.873 -9.022,-6.007 -14.5,-6.007 -5.477,0 -10.627,2.134 -14.5,6.007"
               fill="url(#linearGradient60478)"
               id="path175278"
               style="fill:url(#linearGradient60478)" />
          </g>
        </g>
      </g>
    </g>
  </g>
</svg>
