<svg xmlns="http://www.w3.org/2000/svg" width="2400" height="1350" viewBox="0 0 2400 1350">
  <defs>
    <!-- Background gradient -->
    <linearGradient id="bgGrad" x1="0" y1="0" x2="1" y2="1">
      <stop offset="0%" stop-color="#0b1020"/>
      <stop offset="100%" stop-color="#0f172a"/>
    </linearGradient>
    <!-- Soft vignette -->
    <radialGradient id="vignette" cx="50%" cy="45%" r="70%">
      <stop offset="60%" stop-color="#00000000"/>
      <stop offset="100%" stop-color="#00000055"/>
    </radialGradient>
    <!-- Node glow -->
    <filter id="nodeGlow" x="-50%" y="-50%" width="200%" height="200%">
      <feGaussianBlur in="SourceGraphic" stdDeviation="1.2" result="blur"/>
      <feMerge>
        <feMergeNode in="blur"/>
        <feMergeNode in="SourceGraphic"/>
      </feMerge>
    </filter>
  </defs>
  <rect width="100%" height="100%" fill="url(#bgGrad)"/>
  <rect width="100%" height="100%" fill="url(#vignette)"/>
<line x1="222.3" y1="534.1" x2="329.9" y2="597.4" stroke="#94a3b8" stroke-opacity="0.22" stroke-width="2" />
<line x1="1389.5" y1="1148.4" x2="1206.4" y2="1094.7" stroke="#94a3b8" stroke-opacity="0.22" stroke-width="2" />
<line x1="2314.5" y1="686.3" x2="2249.9" y2="769.2" stroke="#94a3b8" stroke-opacity="0.22" stroke-width="2" />
<line x1="2296.5" y1="841.6" x2="2249.9" y2="769.2" stroke="#94a3b8" stroke-opacity="0.22" stroke-width="2" />
<line x1="677.7" y1="842.7" x2="748.5" y2="840.3" stroke="#94a3b8" stroke-opacity="0.22" stroke-width="2" />
<line x1="222.3" y1="534.1" x2="81.3" y2="465.7" stroke="#94a3b8" stroke-opacity="0.22" stroke-width="2" />
<line x1="2318.4" y1="1074.9" x2="2250.6" y2="1182.4" stroke="#94a3b8" stroke-opacity="0.22" stroke-width="2" />
<line x1="2041.9" y1="393.4" x2="2010.1" y2="375.9" stroke="#94a3b8" stroke-opacity="0.22" stroke-width="2" />
<line x1="927.9" y1="736.9" x2="1061.3" y2="695.9" stroke="#94a3b8" stroke-opacity="0.22" stroke-width="2" />
<line x1="1288.0" y1="948.6" x2="1324.9" y2="934.9" stroke="#94a3b8" stroke-opacity="0.22" stroke-width="2" />
<line x1="1096.3" y1="1215.0" x2="928.9" y2="1252.5" stroke="#94a3b8" stroke-opacity="0.22" stroke-width="2" />
<line x1="2124.3" y1="1115.9" x2="2046.7" y2="1206.9" stroke="#94a3b8" stroke-opacity="0.22" stroke-width="2" />
<line x1="1327.6" y1="894.7" x2="1294.5" y2="970.1" stroke="#94a3b8" stroke-opacity="0.22" stroke-width="2" />
<line x1="1337.5" y1="392.7" x2="1444.1" y2="261.9" stroke="#94a3b8" stroke-opacity="0.22" stroke-width="2" />
<line x1="1096.3" y1="1215.0" x2="1206.4" y2="1094.7" stroke="#94a3b8" stroke-opacity="0.22" stroke-width="2" />
<line x1="1138.8" y1="1013.7" x2="1294.5" y2="970.1" stroke="#94a3b8" stroke-opacity="0.22" stroke-width="2" />
<line x1="1025.1" y1="115.5" x2="978.3" y2="149.8" stroke="#94a3b8" stroke-opacity="0.22" stroke-width="2" />
<line x1="981.9" y1="483.8" x2="1099.2" y2="583.4" stroke="#94a3b8" stroke-opacity="0.22" stroke-width="2" />
<line x1="593.1" y1="118.2" x2="559.9" y2="237.5" stroke="#94a3b8" stroke-opacity="0.22" stroke-width="2" />
<line x1="696.1" y1="345.6" x2="595.5" y2="342.1" stroke="#94a3b8" stroke-opacity="0.22" stroke-width="2" />
<line x1="552.6" y1="1202.1" x2="592.8" y2="1157.4" stroke="#94a3b8" stroke-opacity="0.22" stroke-width="2" />
<line x1="2043.1" y1="454.5" x2="1854.3" y2="582.4" stroke="#94a3b8" stroke-opacity="0.22" stroke-width="2" />
<line x1="1937.9" y1="816.0" x2="2010.2" y2="767.0" stroke="#94a3b8" stroke-opacity="0.22" stroke-width="2" />
<line x1="2043.1" y1="454.5" x2="2041.9" y2="393.4" stroke="#94a3b8" stroke-opacity="0.22" stroke-width="2" />
<line x1="1888.0" y1="948.4" x2="1968.0" y2="1003.4" stroke="#94a3b8" stroke-opacity="0.22" stroke-width="2" />
<line x1="909.2" y1="329.3" x2="786.6" y2="398.6" stroke="#94a3b8" stroke-opacity="0.22" stroke-width="2" />
<line x1="2296.5" y1="841.6" x2="2311.3" y2="709.6" stroke="#94a3b8" stroke-opacity="0.22" stroke-width="2" />
<line x1="678.0" y1="1194.6" x2="639.6" y2="1178.7" stroke="#94a3b8" stroke-opacity="0.22" stroke-width="2" />
<line x1="287.8" y1="195.1" x2="283.6" y2="136.1" stroke="#94a3b8" stroke-opacity="0.22" stroke-width="2" />
<line x1="325.6" y1="826.7" x2="271.9" y2="658.3" stroke="#94a3b8" stroke-opacity="0.22" stroke-width="2" />
<line x1="105.7" y1="937.7" x2="123.6" y2="1185.6" stroke="#94a3b8" stroke-opacity="0.22" stroke-width="2" />
<line x1="592.8" y1="1157.4" x2="639.6" y2="1178.7" stroke="#94a3b8" stroke-opacity="0.22" stroke-width="2" />
<line x1="1535.7" y1="728.5" x2="1548.2" y2="550.8" stroke="#94a3b8" stroke-opacity="0.22" stroke-width="2" />
<line x1="592.8" y1="1157.4" x2="674.1" y2="1013.0" stroke="#94a3b8" stroke-opacity="0.22" stroke-width="2" />
<line x1="595.5" y1="342.1" x2="606.9" y2="222.7" stroke="#94a3b8" stroke-opacity="0.22" stroke-width="2" />
<line x1="1281.2" y1="1238.0" x2="1206.4" y2="1094.7" stroke="#94a3b8" stroke-opacity="0.22" stroke-width="2" />
<line x1="927.9" y1="736.9" x2="837.3" y2="780.1" stroke="#94a3b8" stroke-opacity="0.22" stroke-width="2" />
<line x1="2296.5" y1="841.6" x2="2309.1" y2="853.4" stroke="#94a3b8" stroke-opacity="0.22" stroke-width="2" />
<line x1="1096.3" y1="1215.0" x2="1072.6" y2="1105.0" stroke="#94a3b8" stroke-opacity="0.22" stroke-width="2" />
<line x1="590.5" y1="424.4" x2="673.3" y2="373.5" stroke="#94a3b8" stroke-opacity="0.22" stroke-width="2" />
<line x1="2224.2" y1="480.5" x2="2043.1" y2="454.5" stroke="#94a3b8" stroke-opacity="0.22" stroke-width="2" />
<line x1="1072.6" y1="1105.0" x2="928.9" y2="1252.5" stroke="#94a3b8" stroke-opacity="0.22" stroke-width="2" />
<line x1="569.7" y1="681.4" x2="506.1" y2="613.9" stroke="#94a3b8" stroke-opacity="0.22" stroke-width="2" />
<line x1="1138.8" y1="1013.7" x2="1206.4" y2="1094.7" stroke="#94a3b8" stroke-opacity="0.22" stroke-width="2" />
<line x1="283.6" y1="136.1" x2="351.0" y2="347.4" stroke="#94a3b8" stroke-opacity="0.22" stroke-width="2" />
<line x1="1072.6" y1="1105.0" x2="1206.4" y2="1094.7" stroke="#94a3b8" stroke-opacity="0.22" stroke-width="2" />
<line x1="678.0" y1="1194.6" x2="673.7" y2="1118.2" stroke="#94a3b8" stroke-opacity="0.22" stroke-width="2" />
<line x1="2224.2" y1="480.5" x2="2074.2" y2="373.0" stroke="#94a3b8" stroke-opacity="0.22" stroke-width="2" />
<line x1="1503.9" y1="514.2" x2="1548.2" y2="550.8" stroke="#94a3b8" stroke-opacity="0.22" stroke-width="2" />
<line x1="2010.1" y1="375.9" x2="2074.2" y2="373.0" stroke="#94a3b8" stroke-opacity="0.22" stroke-width="2" />
<line x1="1324.9" y1="934.9" x2="1412.9" y2="883.5" stroke="#94a3b8" stroke-opacity="0.22" stroke-width="2" />
<line x1="2124.3" y1="1115.9" x2="2224.4" y2="1264.6" stroke="#94a3b8" stroke-opacity="0.22" stroke-width="2" />
<line x1="1854.3" y1="582.4" x2="1824.1" y2="711.1" stroke="#94a3b8" stroke-opacity="0.22" stroke-width="2" />
<line x1="1138.8" y1="1013.7" x2="1072.6" y2="1105.0" stroke="#94a3b8" stroke-opacity="0.22" stroke-width="2" />
<line x1="446.0" y1="531.6" x2="426.7" y2="433.1" stroke="#94a3b8" stroke-opacity="0.22" stroke-width="2" />
<line x1="2224.2" y1="480.5" x2="2128.6" y2="626.0" stroke="#94a3b8" stroke-opacity="0.22" stroke-width="2" />
<line x1="2255.2" y1="1104.3" x2="2124.3" y2="1115.9" stroke="#94a3b8" stroke-opacity="0.22" stroke-width="2" />
<line x1="1535.7" y1="728.5" x2="1607.0" y2="719.0" stroke="#94a3b8" stroke-opacity="0.22" stroke-width="2" />
<line x1="677.7" y1="842.7" x2="613.1" y2="876.1" stroke="#94a3b8" stroke-opacity="0.22" stroke-width="2" />
<line x1="1444.1" y1="261.9" x2="1312.7" y2="140.2" stroke="#94a3b8" stroke-opacity="0.22" stroke-width="2" />
<line x1="1888.0" y1="948.4" x2="1937.9" y2="816.0" stroke="#94a3b8" stroke-opacity="0.22" stroke-width="2" />
<line x1="2041.9" y1="393.4" x2="2074.2" y2="373.0" stroke="#94a3b8" stroke-opacity="0.22" stroke-width="2" />
<line x1="2048.3" y1="1069.7" x2="2046.7" y2="1206.9" stroke="#94a3b8" stroke-opacity="0.22" stroke-width="2" />
<line x1="123.6" y1="1185.6" x2="235.0" y2="985.1" stroke="#94a3b8" stroke-opacity="0.22" stroke-width="2" />
<line x1="2296.5" y1="841.6" x2="2314.5" y2="686.3" stroke="#94a3b8" stroke-opacity="0.22" stroke-width="2" />
<line x1="673.7" y1="1118.2" x2="592.8" y2="1157.4" stroke="#94a3b8" stroke-opacity="0.22" stroke-width="2" />
<line x1="573.8" y1="781.2" x2="677.7" y2="842.7" stroke="#94a3b8" stroke-opacity="0.22" stroke-width="2" />
<line x1="842.2" y1="265.0" x2="978.3" y2="149.8" stroke="#94a3b8" stroke-opacity="0.22" stroke-width="2" />
<line x1="283.6" y1="136.1" x2="259.4" y2="301.1" stroke="#94a3b8" stroke-opacity="0.22" stroke-width="2" />
<line x1="325.6" y1="826.7" x2="239.0" y2="831.0" stroke="#94a3b8" stroke-opacity="0.22" stroke-width="2" />
<line x1="258.7" y1="357.0" x2="306.2" y2="410.8" stroke="#94a3b8" stroke-opacity="0.22" stroke-width="2" />
<line x1="306.2" y1="410.8" x2="351.0" y2="347.4" stroke="#94a3b8" stroke-opacity="0.22" stroke-width="2" />
<line x1="1978.4" y1="798.4" x2="2010.2" y2="767.0" stroke="#94a3b8" stroke-opacity="0.22" stroke-width="2" />
<line x1="1893.1" y1="87.7" x2="1795.5" y2="232.8" stroke="#94a3b8" stroke-opacity="0.22" stroke-width="2" />
<line x1="1337.5" y1="392.7" x2="1167.8" y2="334.4" stroke="#94a3b8" stroke-opacity="0.22" stroke-width="2" />
<line x1="1968.0" y1="1003.4" x2="2048.3" y2="1069.7" stroke="#94a3b8" stroke-opacity="0.22" stroke-width="2" />
<line x1="287.8" y1="195.1" x2="259.4" y2="301.1" stroke="#94a3b8" stroke-opacity="0.22" stroke-width="2" />
<line x1="748.5" y1="840.3" x2="613.1" y2="876.1" stroke="#94a3b8" stroke-opacity="0.22" stroke-width="2" />
<line x1="1025.0" y1="411.5" x2="1167.8" y2="334.4" stroke="#94a3b8" stroke-opacity="0.22" stroke-width="2" />
<line x1="1327.6" y1="894.7" x2="1324.9" y2="934.9" stroke="#94a3b8" stroke-opacity="0.22" stroke-width="2" />
<line x1="1337.5" y1="392.7" x2="1201.3" y2="292.6" stroke="#94a3b8" stroke-opacity="0.22" stroke-width="2" />
<line x1="2078.5" y1="183.5" x2="1981.1" y2="277.9" stroke="#94a3b8" stroke-opacity="0.22" stroke-width="2" />
<line x1="1885.0" y1="910.8" x2="1888.0" y2="948.4" stroke="#94a3b8" stroke-opacity="0.22" stroke-width="2" />
<line x1="1548.2" y1="550.8" x2="1607.0" y2="719.0" stroke="#94a3b8" stroke-opacity="0.22" stroke-width="2" />
<line x1="552.6" y1="1202.1" x2="639.6" y2="1178.7" stroke="#94a3b8" stroke-opacity="0.22" stroke-width="2" />
<line x1="258.7" y1="357.0" x2="81.3" y2="465.7" stroke="#94a3b8" stroke-opacity="0.22" stroke-width="2" />
<line x1="696.1" y1="345.6" x2="673.3" y2="373.5" stroke="#94a3b8" stroke-opacity="0.22" stroke-width="2" />
<line x1="530.6" y1="450.9" x2="426.7" y2="433.1" stroke="#94a3b8" stroke-opacity="0.22" stroke-width="2" />
<line x1="1061.3" y1="695.9" x2="1099.2" y2="583.4" stroke="#94a3b8" stroke-opacity="0.22" stroke-width="2" />
<line x1="1324.9" y1="934.9" x2="1294.5" y2="970.1" stroke="#94a3b8" stroke-opacity="0.22" stroke-width="2" />
<line x1="2314.5" y1="686.3" x2="2311.3" y2="709.6" stroke="#94a3b8" stroke-opacity="0.22" stroke-width="2" />
<line x1="2005.6" y1="164.3" x2="1981.1" y2="277.9" stroke="#94a3b8" stroke-opacity="0.22" stroke-width="2" />
<line x1="1512.3" y1="109.8" x2="1444.1" y2="261.9" stroke="#94a3b8" stroke-opacity="0.22" stroke-width="2" />
<line x1="2255.2" y1="1104.3" x2="2224.4" y2="1264.6" stroke="#94a3b8" stroke-opacity="0.22" stroke-width="2" />
<line x1="271.9" y1="658.3" x2="297.1" y2="593.0" stroke="#94a3b8" stroke-opacity="0.22" stroke-width="2" />
<line x1="1027.8" y1="332.0" x2="1167.8" y2="334.4" stroke="#94a3b8" stroke-opacity="0.22" stroke-width="2" />
<line x1="593.1" y1="118.2" x2="768.8" y2="148.9" stroke="#94a3b8" stroke-opacity="0.22" stroke-width="2" />
<line x1="677.7" y1="842.7" x2="837.3" y2="780.1" stroke="#94a3b8" stroke-opacity="0.22" stroke-width="2" />
<line x1="592.8" y1="1157.4" x2="432.6" y2="1223.3" stroke="#94a3b8" stroke-opacity="0.22" stroke-width="2" />
<line x1="786.6" y1="398.6" x2="673.3" y2="373.5" stroke="#94a3b8" stroke-opacity="0.22" stroke-width="2" />
<line x1="1028.8" y1="635.8" x2="1099.2" y2="583.4" stroke="#94a3b8" stroke-opacity="0.22" stroke-width="2" />
<line x1="1535.7" y1="728.5" x2="1411.7" y2="817.1" stroke="#94a3b8" stroke-opacity="0.22" stroke-width="2" />
<line x1="239.0" y1="831.0" x2="208.1" y2="775.2" stroke="#94a3b8" stroke-opacity="0.22" stroke-width="2" />
<line x1="842.2" y1="265.0" x2="909.2" y2="329.3" stroke="#94a3b8" stroke-opacity="0.22" stroke-width="2" />
<line x1="974.7" y1="341.0" x2="1025.0" y2="411.5" stroke="#94a3b8" stroke-opacity="0.22" stroke-width="2" />
<line x1="2010.2" y1="767.0" x2="2128.6" y2="626.0" stroke="#94a3b8" stroke-opacity="0.22" stroke-width="2" />
<line x1="325.6" y1="826.7" x2="208.1" y2="775.2" stroke="#94a3b8" stroke-opacity="0.22" stroke-width="2" />
<line x1="1531.6" y1="804.9" x2="1607.0" y2="719.0" stroke="#94a3b8" stroke-opacity="0.22" stroke-width="2" />
<line x1="842.2" y1="265.0" x2="786.6" y2="398.6" stroke="#94a3b8" stroke-opacity="0.22" stroke-width="2" />
<line x1="2043.1" y1="454.5" x2="2074.2" y2="373.0" stroke="#94a3b8" stroke-opacity="0.22" stroke-width="2" />
<line x1="1885.0" y1="910.8" x2="1713.1" y2="881.3" stroke="#94a3b8" stroke-opacity="0.22" stroke-width="2" />
<line x1="1512.3" y1="109.8" x2="1312.7" y2="140.2" stroke="#94a3b8" stroke-opacity="0.22" stroke-width="2" />
<line x1="2284.5" y1="197.1" x2="2074.2" y2="373.0" stroke="#94a3b8" stroke-opacity="0.22" stroke-width="2" />
<line x1="613.1" y1="876.1" x2="674.1" y2="1013.0" stroke="#94a3b8" stroke-opacity="0.22" stroke-width="2" />
<line x1="909.2" y1="329.3" x2="974.7" y2="341.0" stroke="#94a3b8" stroke-opacity="0.22" stroke-width="2" />
<line x1="139.4" y1="316.6" x2="258.7" y2="357.0" stroke="#94a3b8" stroke-opacity="0.22" stroke-width="2" />
<line x1="2309.1" y1="853.4" x2="2249.9" y2="769.2" stroke="#94a3b8" stroke-opacity="0.22" stroke-width="2" />
<line x1="2046.7" y1="1206.9" x2="2224.4" y2="1264.6" stroke="#94a3b8" stroke-opacity="0.22" stroke-width="2" />
<line x1="768.8" y1="148.9" x2="606.9" y2="222.7" stroke="#94a3b8" stroke-opacity="0.22" stroke-width="2" />
<line x1="2255.2" y1="1104.3" x2="2250.6" y2="1182.4" stroke="#94a3b8" stroke-opacity="0.22" stroke-width="2" />
<line x1="2311.3" y1="709.6" x2="2249.9" y2="769.2" stroke="#94a3b8" stroke-opacity="0.22" stroke-width="2" />
<line x1="748.5" y1="840.3" x2="837.3" y2="780.1" stroke="#94a3b8" stroke-opacity="0.22" stroke-width="2" />
<line x1="1027.8" y1="332.0" x2="1025.0" y2="411.5" stroke="#94a3b8" stroke-opacity="0.22" stroke-width="2" />
<line x1="1888.8" y1="306.6" x2="2010.1" y2="375.9" stroke="#94a3b8" stroke-opacity="0.22" stroke-width="2" />
<line x1="1795.5" y1="232.8" x2="1888.8" y2="306.6" stroke="#94a3b8" stroke-opacity="0.22" stroke-width="2" />
<line x1="2043.1" y1="454.5" x2="2010.1" y2="375.9" stroke="#94a3b8" stroke-opacity="0.22" stroke-width="2" />
<line x1="909.2" y1="329.3" x2="1027.8" y2="332.0" stroke="#94a3b8" stroke-opacity="0.22" stroke-width="2" />
<line x1="927.9" y1="736.9" x2="1028.8" y2="635.8" stroke="#94a3b8" stroke-opacity="0.22" stroke-width="2" />
<line x1="1729.7" y1="885.3" x2="1888.0" y2="948.4" stroke="#94a3b8" stroke-opacity="0.22" stroke-width="2" />
<line x1="1658.2" y1="134.5" x2="1795.5" y2="232.8" stroke="#94a3b8" stroke-opacity="0.22" stroke-width="2" />
<line x1="325.6" y1="826.7" x2="235.0" y2="985.1" stroke="#94a3b8" stroke-opacity="0.22" stroke-width="2" />
<line x1="2311.3" y1="709.6" x2="2175.6" y2="759.5" stroke="#94a3b8" stroke-opacity="0.22" stroke-width="2" />
<line x1="673.7" y1="1118.2" x2="639.6" y2="1178.7" stroke="#94a3b8" stroke-opacity="0.22" stroke-width="2" />
<line x1="974.7" y1="341.0" x2="1027.8" y2="332.0" stroke="#94a3b8" stroke-opacity="0.22" stroke-width="2" />
<line x1="139.4" y1="316.6" x2="259.4" y2="301.1" stroke="#94a3b8" stroke-opacity="0.22" stroke-width="2" />
<line x1="559.9" y1="237.5" x2="606.9" y2="222.7" stroke="#94a3b8" stroke-opacity="0.22" stroke-width="2" />
<line x1="1201.3" y1="292.6" x2="1312.7" y2="140.2" stroke="#94a3b8" stroke-opacity="0.22" stroke-width="2" />
<line x1="1512.3" y1="109.8" x2="1658.2" y2="134.5" stroke="#94a3b8" stroke-opacity="0.22" stroke-width="2" />
<line x1="1144.6" y1="734.3" x2="1099.2" y2="583.4" stroke="#94a3b8" stroke-opacity="0.22" stroke-width="2" />
<line x1="2250.6" y1="1182.4" x2="2224.4" y2="1264.6" stroke="#94a3b8" stroke-opacity="0.22" stroke-width="2" />
<line x1="595.5" y1="342.1" x2="559.9" y2="237.5" stroke="#94a3b8" stroke-opacity="0.22" stroke-width="2" />
<line x1="2010.1" y1="375.9" x2="1981.1" y2="277.9" stroke="#94a3b8" stroke-opacity="0.22" stroke-width="2" />
<line x1="463.4" y1="947.7" x2="325.6" y2="826.7" stroke="#94a3b8" stroke-opacity="0.22" stroke-width="2" />
<line x1="1729.7" y1="885.3" x2="1713.1" y2="881.3" stroke="#94a3b8" stroke-opacity="0.22" stroke-width="2" />
<line x1="446.0" y1="531.6" x2="530.6" y2="450.9" stroke="#94a3b8" stroke-opacity="0.22" stroke-width="2" />
<line x1="569.7" y1="681.4" x2="677.7" y2="842.7" stroke="#94a3b8" stroke-opacity="0.22" stroke-width="2" />
<line x1="2124.3" y1="1115.9" x2="2318.4" y2="1074.9" stroke="#94a3b8" stroke-opacity="0.22" stroke-width="2" />
<line x1="2078.5" y1="183.5" x2="1893.1" y2="87.7" stroke="#94a3b8" stroke-opacity="0.22" stroke-width="2" />
<line x1="590.5" y1="424.4" x2="595.5" y2="342.1" stroke="#94a3b8" stroke-opacity="0.22" stroke-width="2" />
<line x1="258.7" y1="357.0" x2="351.0" y2="347.4" stroke="#94a3b8" stroke-opacity="0.22" stroke-width="2" />
<line x1="1788.0" y1="721.9" x2="1824.1" y2="711.1" stroke="#94a3b8" stroke-opacity="0.22" stroke-width="2" />
<line x1="1025.1" y1="115.5" x2="1027.8" y2="332.0" stroke="#94a3b8" stroke-opacity="0.22" stroke-width="2" />
<line x1="1978.4" y1="798.4" x2="1937.9" y2="816.0" stroke="#94a3b8" stroke-opacity="0.22" stroke-width="2" />
<line x1="2078.5" y1="183.5" x2="2005.6" y2="164.3" stroke="#94a3b8" stroke-opacity="0.22" stroke-width="2" />
<line x1="593.1" y1="118.2" x2="606.9" y2="222.7" stroke="#94a3b8" stroke-opacity="0.22" stroke-width="2" />
<line x1="552.6" y1="1202.1" x2="432.6" y2="1223.3" stroke="#94a3b8" stroke-opacity="0.22" stroke-width="2" />
<line x1="222.3" y1="534.1" x2="297.1" y2="593.0" stroke="#94a3b8" stroke-opacity="0.22" stroke-width="2" />
<line x1="1885.0" y1="910.8" x2="1978.4" y2="798.4" stroke="#94a3b8" stroke-opacity="0.22" stroke-width="2" />
<line x1="1729.7" y1="885.3" x2="1885.0" y2="910.8" stroke="#94a3b8" stroke-opacity="0.22" stroke-width="2" />
<line x1="1937.9" y1="816.0" x2="1824.1" y2="711.1" stroke="#94a3b8" stroke-opacity="0.22" stroke-width="2" />
<line x1="974.7" y1="341.0" x2="981.9" y2="483.8" stroke="#94a3b8" stroke-opacity="0.22" stroke-width="2" />
<line x1="1885.0" y1="910.8" x2="1968.0" y2="1003.4" stroke="#94a3b8" stroke-opacity="0.22" stroke-width="2" />
<line x1="1327.6" y1="894.7" x2="1411.7" y2="817.1" stroke="#94a3b8" stroke-opacity="0.22" stroke-width="2" />
<line x1="306.2" y1="410.8" x2="259.4" y2="301.1" stroke="#94a3b8" stroke-opacity="0.22" stroke-width="2" />
<line x1="1327.6" y1="894.7" x2="1288.0" y2="948.6" stroke="#94a3b8" stroke-opacity="0.22" stroke-width="2" />
<line x1="2005.6" y1="164.3" x2="2284.5" y2="197.1" stroke="#94a3b8" stroke-opacity="0.22" stroke-width="2" />
<line x1="1535.7" y1="728.5" x2="1531.6" y2="804.9" stroke="#94a3b8" stroke-opacity="0.22" stroke-width="2" />
<line x1="446.0" y1="531.6" x2="506.1" y2="613.9" stroke="#94a3b8" stroke-opacity="0.22" stroke-width="2" />
<line x1="639.6" y1="1178.7" x2="432.6" y2="1223.3" stroke="#94a3b8" stroke-opacity="0.22" stroke-width="2" />
<line x1="678.0" y1="1194.6" x2="928.9" y2="1252.5" stroke="#94a3b8" stroke-opacity="0.22" stroke-width="2" />
<line x1="329.9" y1="597.4" x2="297.1" y2="593.0" stroke="#94a3b8" stroke-opacity="0.22" stroke-width="2" />
<line x1="105.7" y1="937.7" x2="239.0" y2="831.0" stroke="#94a3b8" stroke-opacity="0.22" stroke-width="2" />
<line x1="573.8" y1="781.2" x2="613.1" y2="876.1" stroke="#94a3b8" stroke-opacity="0.22" stroke-width="2" />
<line x1="1201.3" y1="292.6" x2="1167.8" y2="334.4" stroke="#94a3b8" stroke-opacity="0.22" stroke-width="2" />
<line x1="1893.1" y1="87.7" x2="2005.6" y2="164.3" stroke="#94a3b8" stroke-opacity="0.22" stroke-width="2" />
<line x1="573.8" y1="781.2" x2="463.4" y2="947.7" stroke="#94a3b8" stroke-opacity="0.22" stroke-width="2" />
<line x1="351.0" y1="347.4" x2="426.7" y2="433.1" stroke="#94a3b8" stroke-opacity="0.22" stroke-width="2" />
<line x1="1061.3" y1="695.9" x2="1028.8" y2="635.8" stroke="#94a3b8" stroke-opacity="0.22" stroke-width="2" />
<line x1="673.3" y1="373.5" x2="595.5" y2="342.1" stroke="#94a3b8" stroke-opacity="0.22" stroke-width="2" />
<line x1="2175.6" y1="759.5" x2="2249.9" y2="769.2" stroke="#94a3b8" stroke-opacity="0.22" stroke-width="2" />
<line x1="590.5" y1="424.4" x2="530.6" y2="450.9" stroke="#94a3b8" stroke-opacity="0.22" stroke-width="2" />
<line x1="696.1" y1="345.6" x2="786.6" y2="398.6" stroke="#94a3b8" stroke-opacity="0.22" stroke-width="2" />
<line x1="2255.2" y1="1104.3" x2="2318.4" y2="1074.9" stroke="#94a3b8" stroke-opacity="0.22" stroke-width="2" />
<line x1="1412.9" y1="883.5" x2="1411.7" y2="817.1" stroke="#94a3b8" stroke-opacity="0.22" stroke-width="2" />
<line x1="1281.2" y1="1238.0" x2="1389.5" y2="1148.4" stroke="#94a3b8" stroke-opacity="0.22" stroke-width="2" />
<line x1="1144.6" y1="734.3" x2="1061.3" y2="695.9" stroke="#94a3b8" stroke-opacity="0.22" stroke-width="2" />
<line x1="1027.8" y1="332.0" x2="978.3" y2="149.8" stroke="#94a3b8" stroke-opacity="0.22" stroke-width="2" />
<line x1="673.7" y1="1118.2" x2="674.1" y2="1013.0" stroke="#94a3b8" stroke-opacity="0.22" stroke-width="2" />
<line x1="1888.8" y1="306.6" x2="1981.1" y2="277.9" stroke="#94a3b8" stroke-opacity="0.22" stroke-width="2" />
<line x1="1729.7" y1="885.3" x2="1788.0" y2="721.9" stroke="#94a3b8" stroke-opacity="0.22" stroke-width="2" />
<line x1="1854.3" y1="582.4" x2="1788.0" y2="721.9" stroke="#94a3b8" stroke-opacity="0.22" stroke-width="2" />
<line x1="1288.0" y1="948.6" x2="1294.5" y2="970.1" stroke="#94a3b8" stroke-opacity="0.22" stroke-width="2" />
<line x1="1885.0" y1="910.8" x2="1937.9" y2="816.0" stroke="#94a3b8" stroke-opacity="0.22" stroke-width="2" />
<line x1="1893.1" y1="87.7" x2="1658.2" y2="134.5" stroke="#94a3b8" stroke-opacity="0.22" stroke-width="2" />
<line x1="2010.2" y1="767.0" x2="2175.6" y2="759.5" stroke="#94a3b8" stroke-opacity="0.22" stroke-width="2" />
<line x1="1025.1" y1="115.5" x2="974.7" y2="341.0" stroke="#94a3b8" stroke-opacity="0.22" stroke-width="2" />
<line x1="2311.3" y1="709.6" x2="2309.1" y2="853.4" stroke="#94a3b8" stroke-opacity="0.22" stroke-width="2" />
<line x1="530.6" y1="450.9" x2="506.1" y2="613.9" stroke="#94a3b8" stroke-opacity="0.22" stroke-width="2" />
<line x1="1294.5" y1="970.1" x2="1206.4" y2="1094.7" stroke="#94a3b8" stroke-opacity="0.22" stroke-width="2" />
<line x1="678.0" y1="1194.6" x2="592.8" y2="1157.4" stroke="#94a3b8" stroke-opacity="0.22" stroke-width="2" />
<line x1="105.7" y1="937.7" x2="208.1" y2="775.2" stroke="#94a3b8" stroke-opacity="0.22" stroke-width="2" />
<line x1="1531.6" y1="804.9" x2="1411.7" y2="817.1" stroke="#94a3b8" stroke-opacity="0.22" stroke-width="2" />
<line x1="222.3" y1="534.1" x2="271.9" y2="658.3" stroke="#94a3b8" stroke-opacity="0.22" stroke-width="2" />
<line x1="842.2" y1="265.0" x2="768.8" y2="148.9" stroke="#94a3b8" stroke-opacity="0.22" stroke-width="2" />
<line x1="2078.5" y1="183.5" x2="2284.5" y2="197.1" stroke="#94a3b8" stroke-opacity="0.22" stroke-width="2" />
<line x1="1327.6" y1="894.7" x2="1412.9" y2="883.5" stroke="#94a3b8" stroke-opacity="0.22" stroke-width="2" />
<line x1="139.4" y1="316.6" x2="81.3" y2="465.7" stroke="#94a3b8" stroke-opacity="0.22" stroke-width="2" />
<line x1="235.0" y1="985.1" x2="239.0" y2="831.0" stroke="#94a3b8" stroke-opacity="0.22" stroke-width="2" />
<line x1="271.9" y1="658.3" x2="208.1" y2="775.2" stroke="#94a3b8" stroke-opacity="0.22" stroke-width="2" />
<line x1="287.8" y1="195.1" x2="258.7" y2="357.0" stroke="#94a3b8" stroke-opacity="0.22" stroke-width="2" />
<line x1="2078.5" y1="183.5" x2="2074.2" y2="373.0" stroke="#94a3b8" stroke-opacity="0.22" stroke-width="2" />
<line x1="2128.6" y1="626.0" x2="2175.6" y2="759.5" stroke="#94a3b8" stroke-opacity="0.22" stroke-width="2" />
<line x1="329.9" y1="597.4" x2="271.9" y2="658.3" stroke="#94a3b8" stroke-opacity="0.22" stroke-width="2" />
<line x1="1535.7" y1="728.5" x2="1503.9" y2="514.2" stroke="#94a3b8" stroke-opacity="0.22" stroke-width="2" />
<line x1="1503.9" y1="514.2" x2="1337.5" y2="392.7" stroke="#94a3b8" stroke-opacity="0.22" stroke-width="2" />
<line x1="1389.5" y1="1148.4" x2="1294.5" y2="970.1" stroke="#94a3b8" stroke-opacity="0.22" stroke-width="2" />
<line x1="1201.3" y1="292.6" x2="1027.8" y2="332.0" stroke="#94a3b8" stroke-opacity="0.22" stroke-width="2" />
<line x1="105.7" y1="937.7" x2="235.0" y2="985.1" stroke="#94a3b8" stroke-opacity="0.22" stroke-width="2" />
<line x1="569.7" y1="681.4" x2="573.8" y2="781.2" stroke="#94a3b8" stroke-opacity="0.22" stroke-width="2" />
<line x1="1281.2" y1="1238.0" x2="1096.3" y2="1215.0" stroke="#94a3b8" stroke-opacity="0.22" stroke-width="2" />
<line x1="1144.6" y1="734.3" x2="1028.8" y2="635.8" stroke="#94a3b8" stroke-opacity="0.22" stroke-width="2" />
<line x1="463.4" y1="947.7" x2="613.1" y2="876.1" stroke="#94a3b8" stroke-opacity="0.22" stroke-width="2" />
<line x1="2124.3" y1="1115.9" x2="2048.3" y2="1069.7" stroke="#94a3b8" stroke-opacity="0.22" stroke-width="2" />
<line x1="123.6" y1="1185.6" x2="432.6" y2="1223.3" stroke="#94a3b8" stroke-opacity="0.22" stroke-width="2" />
<line x1="981.9" y1="483.8" x2="1025.0" y2="411.5" stroke="#94a3b8" stroke-opacity="0.22" stroke-width="2" />
<line x1="1788.0" y1="721.9" x2="1713.1" y2="881.3" stroke="#94a3b8" stroke-opacity="0.22" stroke-width="2" />
<line x1="258.7" y1="357.0" x2="259.4" y2="301.1" stroke="#94a3b8" stroke-opacity="0.22" stroke-width="2" />
<line x1="351.0" y1="347.4" x2="259.4" y2="301.1" stroke="#94a3b8" stroke-opacity="0.22" stroke-width="2" />
<circle cx="1512.3" cy="109.8" r="2.4" fill="#cbd5e1" fill-opacity="0.9" filter="url(#nodeGlow)" />
<circle cx="696.1" cy="345.6" r="2.4" fill="#cbd5e1" fill-opacity="0.9" filter="url(#nodeGlow)" />
<circle cx="1729.7" cy="885.3" r="2.4" fill="#cbd5e1" fill-opacity="0.9" filter="url(#nodeGlow)" />
<circle cx="2078.5" cy="183.5" r="2.4" fill="#cbd5e1" fill-opacity="0.9" filter="url(#nodeGlow)" />
<circle cx="1025.1" cy="115.5" r="2.4" fill="#cbd5e1" fill-opacity="0.9" filter="url(#nodeGlow)" />
<circle cx="569.7" cy="681.4" r="2.4" fill="#cbd5e1" fill-opacity="0.9" filter="url(#nodeGlow)" />
<circle cx="139.4" cy="316.6" r="2.4" fill="#cbd5e1" fill-opacity="0.9" filter="url(#nodeGlow)" />
<circle cx="1535.7" cy="728.5" r="2.4" fill="#cbd5e1" fill-opacity="0.9" filter="url(#nodeGlow)" />
<circle cx="573.8" cy="781.2" r="2.4" fill="#cbd5e1" fill-opacity="0.9" filter="url(#nodeGlow)" />
<circle cx="1893.1" cy="87.7" r="2.4" fill="#cbd5e1" fill-opacity="0.9" filter="url(#nodeGlow)" />
<circle cx="1885.0" cy="910.8" r="2.4" fill="#cbd5e1" fill-opacity="0.9" filter="url(#nodeGlow)" />
<circle cx="842.2" cy="265.0" r="2.4" fill="#cbd5e1" fill-opacity="0.9" filter="url(#nodeGlow)" />
<circle cx="2224.2" cy="480.5" r="2.4" fill="#cbd5e1" fill-opacity="0.9" filter="url(#nodeGlow)" />
<circle cx="287.8" cy="195.1" r="2.4" fill="#cbd5e1" fill-opacity="0.9" filter="url(#nodeGlow)" />
<circle cx="1978.4" cy="798.4" r="2.4" fill="#cbd5e1" fill-opacity="0.9" filter="url(#nodeGlow)" />
<circle cx="1888.0" cy="948.4" r="2.4" fill="#cbd5e1" fill-opacity="0.9" filter="url(#nodeGlow)" />
<circle cx="1281.2" cy="1238.0" r="2.4" fill="#cbd5e1" fill-opacity="0.9" filter="url(#nodeGlow)" />
<circle cx="927.9" cy="736.9" r="2.4" fill="#cbd5e1" fill-opacity="0.9" filter="url(#nodeGlow)" />
<circle cx="1937.9" cy="816.0" r="2.4" fill="#cbd5e1" fill-opacity="0.9" filter="url(#nodeGlow)" />
<circle cx="2010.2" cy="767.0" r="2.4" fill="#cbd5e1" fill-opacity="0.9" filter="url(#nodeGlow)" />
<circle cx="1658.2" cy="134.5" r="2.4" fill="#cbd5e1" fill-opacity="0.9" filter="url(#nodeGlow)" />
<circle cx="590.5" cy="424.4" r="2.4" fill="#cbd5e1" fill-opacity="0.9" filter="url(#nodeGlow)" />
<circle cx="258.7" cy="357.0" r="2.4" fill="#cbd5e1" fill-opacity="0.9" filter="url(#nodeGlow)" />
<circle cx="306.2" cy="410.8" r="2.4" fill="#cbd5e1" fill-opacity="0.9" filter="url(#nodeGlow)" />
<circle cx="1503.9" cy="514.2" r="2.4" fill="#cbd5e1" fill-opacity="0.9" filter="url(#nodeGlow)" />
<circle cx="909.2" cy="329.3" r="2.4" fill="#cbd5e1" fill-opacity="0.9" filter="url(#nodeGlow)" />
<circle cx="678.0" cy="1194.6" r="2.4" fill="#cbd5e1" fill-opacity="0.9" filter="url(#nodeGlow)" />
<circle cx="1531.6" cy="804.9" r="2.4" fill="#cbd5e1" fill-opacity="0.9" filter="url(#nodeGlow)" />
<circle cx="463.4" cy="947.7" r="2.4" fill="#cbd5e1" fill-opacity="0.9" filter="url(#nodeGlow)" />
<circle cx="446.0" cy="531.6" r="2.4" fill="#cbd5e1" fill-opacity="0.9" filter="url(#nodeGlow)" />
<circle cx="2296.5" cy="841.6" r="2.4" fill="#cbd5e1" fill-opacity="0.9" filter="url(#nodeGlow)" />
<circle cx="1327.6" cy="894.7" r="2.4" fill="#cbd5e1" fill-opacity="0.9" filter="url(#nodeGlow)" />
<circle cx="1968.0" cy="1003.4" r="2.4" fill="#cbd5e1" fill-opacity="0.9" filter="url(#nodeGlow)" />
<circle cx="593.1" cy="118.2" r="2.4" fill="#cbd5e1" fill-opacity="0.9" filter="url(#nodeGlow)" />
<circle cx="786.6" cy="398.6" r="2.4" fill="#cbd5e1" fill-opacity="0.9" filter="url(#nodeGlow)" />
<circle cx="552.6" cy="1202.1" r="2.4" fill="#cbd5e1" fill-opacity="0.9" filter="url(#nodeGlow)" />
<circle cx="2043.1" cy="454.5" r="2.4" fill="#cbd5e1" fill-opacity="0.9" filter="url(#nodeGlow)" />
<circle cx="1548.2" cy="550.8" r="2.4" fill="#cbd5e1" fill-opacity="0.9" filter="url(#nodeGlow)" />
<circle cx="2128.6" cy="626.0" r="2.4" fill="#cbd5e1" fill-opacity="0.9" filter="url(#nodeGlow)" />
<circle cx="673.3" cy="373.5" r="2.4" fill="#cbd5e1" fill-opacity="0.9" filter="url(#nodeGlow)" />
<circle cx="1337.5" cy="392.7" r="2.4" fill="#cbd5e1" fill-opacity="0.9" filter="url(#nodeGlow)" />
<circle cx="1389.5" cy="1148.4" r="2.4" fill="#cbd5e1" fill-opacity="0.9" filter="url(#nodeGlow)" />
<circle cx="974.7" cy="341.0" r="2.4" fill="#cbd5e1" fill-opacity="0.9" filter="url(#nodeGlow)" />
<circle cx="2314.5" cy="686.3" r="2.4" fill="#cbd5e1" fill-opacity="0.9" filter="url(#nodeGlow)" />
<circle cx="283.6" cy="136.1" r="2.4" fill="#cbd5e1" fill-opacity="0.9" filter="url(#nodeGlow)" />
<circle cx="325.6" cy="826.7" r="2.4" fill="#cbd5e1" fill-opacity="0.9" filter="url(#nodeGlow)" />
<circle cx="1854.3" cy="582.4" r="2.4" fill="#cbd5e1" fill-opacity="0.9" filter="url(#nodeGlow)" />
<circle cx="222.3" cy="534.1" r="2.4" fill="#cbd5e1" fill-opacity="0.9" filter="url(#nodeGlow)" />
<circle cx="2311.3" cy="709.6" r="2.4" fill="#cbd5e1" fill-opacity="0.9" filter="url(#nodeGlow)" />
<circle cx="2255.2" cy="1104.3" r="2.4" fill="#cbd5e1" fill-opacity="0.9" filter="url(#nodeGlow)" />
<circle cx="105.7" cy="937.7" r="2.4" fill="#cbd5e1" fill-opacity="0.9" filter="url(#nodeGlow)" />
<circle cx="1607.0" cy="719.0" r="2.4" fill="#cbd5e1" fill-opacity="0.9" filter="url(#nodeGlow)" />
<circle cx="677.7" cy="842.7" r="2.4" fill="#cbd5e1" fill-opacity="0.9" filter="url(#nodeGlow)" />
<circle cx="329.9" cy="597.4" r="2.4" fill="#cbd5e1" fill-opacity="0.9" filter="url(#nodeGlow)" />
<circle cx="1096.3" cy="1215.0" r="2.4" fill="#cbd5e1" fill-opacity="0.9" filter="url(#nodeGlow)" />
<circle cx="2041.9" cy="393.4" r="2.4" fill="#cbd5e1" fill-opacity="0.9" filter="url(#nodeGlow)" />
<circle cx="1201.3" cy="292.6" r="2.4" fill="#cbd5e1" fill-opacity="0.9" filter="url(#nodeGlow)" />
<circle cx="2124.3" cy="1115.9" r="2.4" fill="#cbd5e1" fill-opacity="0.9" filter="url(#nodeGlow)" />
<circle cx="748.5" cy="840.3" r="2.4" fill="#cbd5e1" fill-opacity="0.9" filter="url(#nodeGlow)" />
<circle cx="1444.1" cy="261.9" r="2.4" fill="#cbd5e1" fill-opacity="0.9" filter="url(#nodeGlow)" />
<circle cx="1788.0" cy="721.9" r="2.4" fill="#cbd5e1" fill-opacity="0.9" filter="url(#nodeGlow)" />
<circle cx="1824.1" cy="711.1" r="2.4" fill="#cbd5e1" fill-opacity="0.9" filter="url(#nodeGlow)" />
<circle cx="81.3" cy="465.7" r="2.4" fill="#cbd5e1" fill-opacity="0.9" filter="url(#nodeGlow)" />
<circle cx="123.6" cy="1185.6" r="2.4" fill="#cbd5e1" fill-opacity="0.9" filter="url(#nodeGlow)" />
<circle cx="2048.3" cy="1069.7" r="2.4" fill="#cbd5e1" fill-opacity="0.9" filter="url(#nodeGlow)" />
<circle cx="768.8" cy="148.9" r="2.4" fill="#cbd5e1" fill-opacity="0.9" filter="url(#nodeGlow)" />
<circle cx="2046.7" cy="1206.9" r="2.4" fill="#cbd5e1" fill-opacity="0.9" filter="url(#nodeGlow)" />
<circle cx="271.9" cy="658.3" r="2.4" fill="#cbd5e1" fill-opacity="0.9" filter="url(#nodeGlow)" />
<circle cx="235.0" cy="985.1" r="2.4" fill="#cbd5e1" fill-opacity="0.9" filter="url(#nodeGlow)" />
<circle cx="1795.5" cy="232.8" r="2.4" fill="#cbd5e1" fill-opacity="0.9" filter="url(#nodeGlow)" />
<circle cx="1144.6" cy="734.3" r="2.4" fill="#cbd5e1" fill-opacity="0.9" filter="url(#nodeGlow)" />
<circle cx="673.7" cy="1118.2" r="2.4" fill="#cbd5e1" fill-opacity="0.9" filter="url(#nodeGlow)" />
<circle cx="1027.8" cy="332.0" r="2.4" fill="#cbd5e1" fill-opacity="0.9" filter="url(#nodeGlow)" />
<circle cx="1288.0" cy="948.6" r="2.4" fill="#cbd5e1" fill-opacity="0.9" filter="url(#nodeGlow)" />
<circle cx="530.6" cy="450.9" r="2.4" fill="#cbd5e1" fill-opacity="0.9" filter="url(#nodeGlow)" />
<circle cx="2309.1" cy="853.4" r="2.4" fill="#cbd5e1" fill-opacity="0.9" filter="url(#nodeGlow)" />
<circle cx="1061.3" cy="695.9" r="2.4" fill="#cbd5e1" fill-opacity="0.9" filter="url(#nodeGlow)" />
<circle cx="351.0" cy="347.4" r="2.4" fill="#cbd5e1" fill-opacity="0.9" filter="url(#nodeGlow)" />
<circle cx="837.3" cy="780.1" r="2.4" fill="#cbd5e1" fill-opacity="0.9" filter="url(#nodeGlow)" />
<circle cx="595.5" cy="342.1" r="2.4" fill="#cbd5e1" fill-opacity="0.9" filter="url(#nodeGlow)" />
<circle cx="239.0" cy="831.0" r="2.4" fill="#cbd5e1" fill-opacity="0.9" filter="url(#nodeGlow)" />
<circle cx="592.8" cy="1157.4" r="2.4" fill="#cbd5e1" fill-opacity="0.9" filter="url(#nodeGlow)" />
<circle cx="2005.6" cy="164.3" r="2.4" fill="#cbd5e1" fill-opacity="0.9" filter="url(#nodeGlow)" />
<circle cx="613.1" cy="876.1" r="2.4" fill="#cbd5e1" fill-opacity="0.9" filter="url(#nodeGlow)" />
<circle cx="559.9" cy="237.5" r="2.4" fill="#cbd5e1" fill-opacity="0.9" filter="url(#nodeGlow)" />
<circle cx="2175.6" cy="759.5" r="2.4" fill="#cbd5e1" fill-opacity="0.9" filter="url(#nodeGlow)" />
<circle cx="1138.8" cy="1013.7" r="2.4" fill="#cbd5e1" fill-opacity="0.9" filter="url(#nodeGlow)" />
<circle cx="1888.8" cy="306.6" r="2.4" fill="#cbd5e1" fill-opacity="0.9" filter="url(#nodeGlow)" />
<circle cx="297.1" cy="593.0" r="2.4" fill="#cbd5e1" fill-opacity="0.9" filter="url(#nodeGlow)" />
<circle cx="1028.8" cy="635.8" r="2.4" fill="#cbd5e1" fill-opacity="0.9" filter="url(#nodeGlow)" />
<circle cx="1713.1" cy="881.3" r="2.4" fill="#cbd5e1" fill-opacity="0.9" filter="url(#nodeGlow)" />
<circle cx="2284.5" cy="197.1" r="2.4" fill="#cbd5e1" fill-opacity="0.9" filter="url(#nodeGlow)" />
<circle cx="981.9" cy="483.8" r="2.4" fill="#cbd5e1" fill-opacity="0.9" filter="url(#nodeGlow)" />
<circle cx="2010.1" cy="375.9" r="2.4" fill="#cbd5e1" fill-opacity="0.9" filter="url(#nodeGlow)" />
<circle cx="506.1" cy="613.9" r="2.4" fill="#cbd5e1" fill-opacity="0.9" filter="url(#nodeGlow)" />
<circle cx="1025.0" cy="411.5" r="2.4" fill="#cbd5e1" fill-opacity="0.9" filter="url(#nodeGlow)" />
<circle cx="639.6" cy="1178.7" r="2.4" fill="#cbd5e1" fill-opacity="0.9" filter="url(#nodeGlow)" />
<circle cx="1072.6" cy="1105.0" r="2.4" fill="#cbd5e1" fill-opacity="0.9" filter="url(#nodeGlow)" />
<circle cx="1312.7" cy="140.2" r="2.4" fill="#cbd5e1" fill-opacity="0.9" filter="url(#nodeGlow)" />
<circle cx="2318.4" cy="1074.9" r="2.4" fill="#cbd5e1" fill-opacity="0.9" filter="url(#nodeGlow)" />
<circle cx="2250.6" cy="1182.4" r="2.4" fill="#cbd5e1" fill-opacity="0.9" filter="url(#nodeGlow)" />
<circle cx="1981.1" cy="277.9" r="2.4" fill="#cbd5e1" fill-opacity="0.9" filter="url(#nodeGlow)" />
<circle cx="1167.8" cy="334.4" r="2.4" fill="#cbd5e1" fill-opacity="0.9" filter="url(#nodeGlow)" />
<circle cx="978.3" cy="149.8" r="2.4" fill="#cbd5e1" fill-opacity="0.9" filter="url(#nodeGlow)" />
<circle cx="928.9" cy="1252.5" r="2.4" fill="#cbd5e1" fill-opacity="0.9" filter="url(#nodeGlow)" />
<circle cx="674.1" cy="1013.0" r="2.4" fill="#cbd5e1" fill-opacity="0.9" filter="url(#nodeGlow)" />
<circle cx="1099.2" cy="583.4" r="2.4" fill="#cbd5e1" fill-opacity="0.9" filter="url(#nodeGlow)" />
<circle cx="2224.4" cy="1264.6" r="2.4" fill="#cbd5e1" fill-opacity="0.9" filter="url(#nodeGlow)" />
<circle cx="1324.9" cy="934.9" r="2.4" fill="#cbd5e1" fill-opacity="0.9" filter="url(#nodeGlow)" />
<circle cx="426.7" cy="433.1" r="2.4" fill="#cbd5e1" fill-opacity="0.9" filter="url(#nodeGlow)" />
<circle cx="2249.9" cy="769.2" r="2.4" fill="#cbd5e1" fill-opacity="0.9" filter="url(#nodeGlow)" />
<circle cx="1294.5" cy="970.1" r="2.4" fill="#cbd5e1" fill-opacity="0.9" filter="url(#nodeGlow)" />
<circle cx="208.1" cy="775.2" r="2.4" fill="#cbd5e1" fill-opacity="0.9" filter="url(#nodeGlow)" />
<circle cx="1206.4" cy="1094.7" r="2.4" fill="#cbd5e1" fill-opacity="0.9" filter="url(#nodeGlow)" />
<circle cx="432.6" cy="1223.3" r="2.4" fill="#cbd5e1" fill-opacity="0.9" filter="url(#nodeGlow)" />
<circle cx="259.4" cy="301.1" r="2.4" fill="#cbd5e1" fill-opacity="0.9" filter="url(#nodeGlow)" />
<circle cx="1412.9" cy="883.5" r="2.4" fill="#cbd5e1" fill-opacity="0.9" filter="url(#nodeGlow)" />
<circle cx="606.9" cy="222.7" r="2.4" fill="#cbd5e1" fill-opacity="0.9" filter="url(#nodeGlow)" />
<circle cx="2074.2" cy="373.0" r="2.4" fill="#cbd5e1" fill-opacity="0.9" filter="url(#nodeGlow)" />
<circle cx="1411.7" cy="817.1" r="2.4" fill="#cbd5e1" fill-opacity="0.9" filter="url(#nodeGlow)" />
</svg>
